<svg xmlns="http://www.w3.org/2000/svg" width="444.811" height="103.053" viewBox="0 0 444.811 103.053">
  <g id="Group_12603" data-name="Group 12603" transform="translate(-45.37 -214.32)">
    <g id="Group_1" data-name="Group 1" transform="translate(181.749 220.597)">
      <path id="Path_1" data-name="Path 1" d="M821.609,175.359a5.422,5.422,0,0,0-1.834-4.514,7.66,7.66,0,0,0-4.892-1.475,11.258,11.258,0,0,0-7.769,3.165l-2.878-3.453a14.524,14.524,0,0,1,4.928-2.985A17.783,17.783,0,0,1,815.4,165a14.046,14.046,0,0,1,5.09.827,9.7,9.7,0,0,1,3.543,2.266,9.107,9.107,0,0,1,2.068,3.4,12.37,12.37,0,0,1,.683,4.208v11.906c0,.917.036,1.888.09,2.914a13.492,13.492,0,0,0,.324,2.5h-4.892a17.053,17.053,0,0,1-.468-3.921h-.18a10.523,10.523,0,0,1-3.777,3.4,11.248,11.248,0,0,1-5.377,1.2,14.032,14.032,0,0,1-3.363-.432,10.039,10.039,0,0,1-3.2-1.4,7.9,7.9,0,0,1-2.392-2.59,7.742,7.742,0,0,1-.953-3.975,7.023,7.023,0,0,1,1.673-4.928,10.805,10.805,0,0,1,4.37-2.77,25.043,25.043,0,0,1,6.1-1.241c2.266-.2,4.55-.288,6.852-.288v-.719Zm-1.313,4.658c-1.349,0-2.734.054-4.172.18a19.1,19.1,0,0,0-3.921.683,7.518,7.518,0,0,0-2.913,1.547,3.519,3.519,0,0,0-1.151,2.77,3.84,3.84,0,0,0,.486,2.014,4.153,4.153,0,0,0,1.295,1.331,5.156,5.156,0,0,0,1.781.719,9.335,9.335,0,0,0,2.014.2,7.469,7.469,0,0,0,5.845-2.266,8.2,8.2,0,0,0,2.05-5.719v-1.439l-1.313-.018Z" transform="translate(-802.6 -149.515)" fill="#072b8f" stroke="#072b8f" stroke-miterlimit="10" stroke-width="2"/>
      <path id="Path_2" data-name="Path 2" d="M1003.095,166.529a9.491,9.491,0,0,1,5.378-1.529,9.863,9.863,0,0,1,4.982,1.259,8.522,8.522,0,0,1,3.489,4.208,9.882,9.882,0,0,1,3.849-4.065,11.5,11.5,0,0,1,9.964-.5,9.163,9.163,0,0,1,3.165,2.392,9.542,9.542,0,0,1,1.87,3.507,15.26,15.26,0,0,1,.612,4.316v16.924h-5.413V177.9a16.3,16.3,0,0,0-.288-3.165,8.393,8.393,0,0,0-.971-2.644,5.271,5.271,0,0,0-1.834-1.834,5.575,5.575,0,0,0-2.932-.683,6.119,6.119,0,0,0-3.166.773,6.62,6.62,0,0,0-2.158,2.014,8.623,8.623,0,0,0-1.205,2.788,13.373,13.373,0,0,0-.378,3.165v14.73h-5.413V176.816a13.38,13.38,0,0,0-.288-2.932,6.182,6.182,0,0,0-.971-2.266,4.955,4.955,0,0,0-1.781-1.493,6.505,6.505,0,0,0-7.68,1.906,10.028,10.028,0,0,0-1.978,6.529v14.5h-5.414v-21.4c0-.719-.018-1.673-.054-2.824s-.09-2.158-.18-3.057h5.125c.072.683.126,1.475.18,2.338q.054,1.295.054,2.158h.18A8.512,8.512,0,0,1,1003.095,166.529Z" transform="translate(-959.823 -149.515)" fill="#072b8f" stroke="#072b8f" stroke-miterlimit="10" stroke-width="2"/>
      <path id="Path_3" data-name="Path 3" d="M1292.613,206.833H1287.2v-41.1h5.287V170h.18a10.129,10.129,0,0,1,3.867-3.6,12.165,12.165,0,0,1,5.935-1.4,13.538,13.538,0,0,1,5.539,1.1,12.67,12.67,0,0,1,4.3,3.057,13.755,13.755,0,0,1,2.788,4.568,16,16,0,0,1,.971,5.611,16.346,16.346,0,0,1-.971,5.647,13.952,13.952,0,0,1-2.751,4.6,12.547,12.547,0,0,1-4.3,3.075,13.759,13.759,0,0,1-5.683,1.115,12.476,12.476,0,0,1-5.5-1.259,10.087,10.087,0,0,1-4.083-3.561h-.18l.018,17.877Zm17.948-27.5a12.158,12.158,0,0,0-.575-3.687,9.177,9.177,0,0,0-1.727-3.165,8.377,8.377,0,0,0-2.842-2.194,9.063,9.063,0,0,0-3.939-.809,8.67,8.67,0,0,0-3.776.809,8.773,8.773,0,0,0-2.914,2.194,9.831,9.831,0,0,0-1.87,3.165,10.846,10.846,0,0,0,0,7.482,9.783,9.783,0,0,0,1.87,3.129,9.185,9.185,0,0,0,2.914,2.158,8.669,8.669,0,0,0,3.776.809,8.813,8.813,0,0,0,3.939-.827,8.474,8.474,0,0,0,2.842-2.212,9.177,9.177,0,0,0,1.727-3.165A12.246,12.246,0,0,0,1310.562,179.334Z" transform="translate(-1200.046 -149.515)" fill="#072b8f" stroke="#072b8f" stroke-miterlimit="10" stroke-width="2"/>
      <path id="Path_4" data-name="Path 4" d="M1504.114,122.405H1498.7V78.9h5.414Z" transform="translate(-1373.508 -78.9)" fill="#072b8f" stroke="#072b8f" stroke-miterlimit="10" stroke-width="2"/>
      <path id="Path_5" data-name="Path 5" d="M1606.665,179.154v.917a7.969,7.969,0,0,1-.054.917h-21.69a8.311,8.311,0,0,0,.773,3.237,8.474,8.474,0,0,0,1.924,2.626,9.529,9.529,0,0,0,10.935,1.169,9.779,9.779,0,0,0,3.166-2.932l3.795,3.057a13.425,13.425,0,0,1-5.143,4.262,16.471,16.471,0,0,1-12.338.324,13.169,13.169,0,0,1-4.55-2.914,13.368,13.368,0,0,1-2.986-4.514,15.069,15.069,0,0,1-1.1-5.863,15.854,15.854,0,0,1,1.061-5.845,13.294,13.294,0,0,1,2.967-4.568,13.994,13.994,0,0,1,4.5-2.967,15.515,15.515,0,0,1,11.043-.09,11.224,11.224,0,0,1,4.154,2.824,12.636,12.636,0,0,1,2.626,4.46A17.747,17.747,0,0,1,1606.665,179.154Zm-5.521-2.194a10.218,10.218,0,0,0-.539-3.021,6.934,6.934,0,0,0-1.439-2.446,6.75,6.75,0,0,0-2.356-1.637,8.487,8.487,0,0,0-3.309-.612,8.589,8.589,0,0,0-3.256.612,8.21,8.21,0,0,0-2.644,1.637,8.56,8.56,0,0,0-1.834,2.446,7.573,7.573,0,0,0-.827,3.021Z" transform="translate(-1439.695 -149.515)" fill="#072b8f" stroke="#072b8f" stroke-miterlimit="10" stroke-width="2"/>
      <path id="Path_6" data-name="Path 6" d="M1764.981,169.1l6.151,20.826h.108l6.51-20.826h5.7l6.618,20.826h.108l6.151-20.826h5.7L1793,196.383h-5.647l-6.727-20.485h-.108l-6.672,20.485H1768.2l-9.1-27.283Z" transform="translate(-1587.076 -152.878)" fill="#072b8f" stroke="#072b8f" stroke-miterlimit="10" stroke-width="2"/>
      <path id="Path_7" data-name="Path 7" d="M2055.587,179.334a14.93,14.93,0,0,1-1.115,5.809,13.739,13.739,0,0,1-7.805,7.554,16.432,16.432,0,0,1-11.618,0,13.612,13.612,0,0,1-7.733-7.554,14.608,14.608,0,0,1-1.115-5.809,14.775,14.775,0,0,1,1.115-5.791,13.957,13.957,0,0,1,3.075-4.514,14.146,14.146,0,0,1,4.658-2.968,16.432,16.432,0,0,1,11.618,0,14.385,14.385,0,0,1,4.694,2.968,13.689,13.689,0,0,1,3.111,4.514A14.712,14.712,0,0,1,2055.587,179.334Zm-5.647.018a11.227,11.227,0,0,0-.611-3.723,9.226,9.226,0,0,0-1.763-3.129,8.583,8.583,0,0,0-2.859-2.158,9.815,9.815,0,0,0-7.806,0,8.593,8.593,0,0,0-2.859,2.158,9.556,9.556,0,0,0-1.763,3.129,11.711,11.711,0,0,0-.611,3.723,11.151,11.151,0,0,0,.611,3.723,9.5,9.5,0,0,0,1.763,3.147,8.406,8.406,0,0,0,2.859,2.176,9.815,9.815,0,0,0,7.806,0,8.4,8.4,0,0,0,2.859-2.176,10.007,10.007,0,0,0,1.763-3.147A11.063,11.063,0,0,0,2049.94,179.352Z" transform="translate(-1806.139 -149.515)" fill="#072b8f" stroke="#072b8f" stroke-miterlimit="10" stroke-width="2"/>
      <path id="Path_8" data-name="Path 8" d="M2238.08,168.713c-.036-1.151-.09-2.158-.18-3.057h5.126c.071.683.125,1.493.18,2.392q.053,1.349.053,2.212h.181a9.393,9.393,0,0,1,3.363-3.885,8.856,8.856,0,0,1,4.981-1.475,7.954,7.954,0,0,1,2.123.234l-.234,5a9.994,9.994,0,0,0-2.482-.288,7.459,7.459,0,0,0-3.4.719,6.985,6.985,0,0,0-2.392,1.924,8.306,8.306,0,0,0-1.4,2.788,11.868,11.868,0,0,0-.467,3.309V192.92h-5.414v-21.4C2238.134,170.8,2238.116,169.864,2238.08,168.713Z" transform="translate(-1979.765 -149.433)" fill="#072b8f" stroke="#072b8f" stroke-miterlimit="10" stroke-width="2"/>
      <path id="Path_9" data-name="Path 9" d="M2369.013,106.992h.18L2380.65,95.14h7.248l-12.769,12.374,13.866,14.909h-7.481l-12.32-14.154h-.18v14.154H2363.6V78.9h5.413Z" transform="translate(-2082.859 -78.9)" fill="#072b8f" stroke="#072b8f" stroke-miterlimit="10" stroke-width="2"/>
    </g>
    <g id="Group_2" data-name="Group 2" transform="translate(180.886 286.367)">
      <path id="Path_10" data-name="Path 10" d="M801.073,468.1H797.8V446.5h3.273Z" transform="translate(-797.8 -446.158)" fill="#212529"/>
      <path id="Path_11" data-name="Path 11" d="M850.989,445.895a4.826,4.826,0,0,1,1.259,3.579v.558l-3.147.306v-.809a2.047,2.047,0,0,0-.432-1.4,1.829,1.829,0,0,0-2.482,0,2.046,2.046,0,0,0-.432,1.4v.27a3.549,3.549,0,0,0,.593,1.924,10.873,10.873,0,0,0,2.158,2.266,15.693,15.693,0,0,1,3.183,3.453,6.611,6.611,0,0,1,.917,3.453v1.079a4.712,4.712,0,0,1-1.313,3.579,6.187,6.187,0,0,1-7.481,0,4.712,4.712,0,0,1-1.313-3.579v-1.457l3.147-.306v1.547c0,1.349.612,2.032,1.853,2.032s1.852-.683,1.852-2.032v-.7a3.565,3.565,0,0,0-.611-2,12.081,12.081,0,0,0-2.23-2.3,14.279,14.279,0,0,1-3.111-3.417,6.705,6.705,0,0,1-.9-3.435v-.468a4.826,4.826,0,0,1,1.259-3.579,4.887,4.887,0,0,1,3.615-1.259A5.053,5.053,0,0,1,850.989,445.895Z" transform="translate(-834.461 -444.6)" fill="#212529"/>
      <path id="Path_12" data-name="Path 12" d="M930.636,446.257a5.515,5.515,0,0,1,1.4,3.993v11.294a5.515,5.515,0,0,1-1.4,3.993,5.86,5.86,0,0,1-7.733,0,5.515,5.515,0,0,1-1.4-3.993V450.249a5.515,5.515,0,0,1,1.4-3.993,5.86,5.86,0,0,1,7.733,0Zm-5.359,2.194a2.825,2.825,0,0,0-.5,1.834v11.222a2.825,2.825,0,0,0,.5,1.835,1.839,1.839,0,0,0,1.493.629,1.815,1.815,0,0,0,1.493-.629,2.826,2.826,0,0,0,.5-1.835V450.285a2.826,2.826,0,0,0-.5-1.834,1.839,1.839,0,0,0-1.493-.629A1.815,1.815,0,0,0,925.277,448.451Z" transform="translate(-899.253 -444.764)" fill="#212529"/>
      <path id="Path_13" data-name="Path 13" d="M1059.422,446.095a4.877,4.877,0,0,1,1.331,3.633v.809a9.147,9.147,0,0,1-.594,3.2,25.41,25.41,0,0,1-2.1,4.064l-3.633,5.827h6.33v3.093H1050.7v-2.77l4.838-7.805a14.55,14.55,0,0,0,1.529-3.057,8.318,8.318,0,0,0,.414-2.662V450c0-1.439-.612-2.158-1.816-2.158a1.556,1.556,0,0,0-1.367.611,3.3,3.3,0,0,0-.45,1.942v1.079l-3.147-.162v-1.475a5.264,5.264,0,0,1,8.723-3.741Z" transform="translate(-1005.216 -444.764)" fill="#212529"/>
      <path id="Path_14" data-name="Path 14" d="M1137.008,449.477l-6.043,18.7H1127.6l6.079-18.38H1126.9v-3.2h10.126v2.878h-.018Z" transform="translate(-1067.064 -446.24)" fill="#212529"/>
      <path id="Path_15" data-name="Path 15" d="M1214.236,446.257a5.515,5.515,0,0,1,1.4,3.993v11.294a5.515,5.515,0,0,1-1.4,3.993,5.86,5.86,0,0,1-7.733,0,5.514,5.514,0,0,1-1.4-3.993V450.249a5.514,5.514,0,0,1,1.4-3.993,5.86,5.86,0,0,1,7.733,0Zm-5.359,2.194a2.823,2.823,0,0,0-.5,1.834v11.222a2.823,2.823,0,0,0,.5,1.835,1.838,1.838,0,0,0,1.493.629,1.814,1.814,0,0,0,1.493-.629,2.825,2.825,0,0,0,.5-1.835V450.285a2.825,2.825,0,0,0-.5-1.834,1.839,1.839,0,0,0-1.493-.629A1.814,1.814,0,0,0,1208.877,448.451Z" transform="translate(-1131.044 -444.764)" fill="#212529"/>
      <path id="Path_16" data-name="Path 16" d="M1301.536,446.257a5.516,5.516,0,0,1,1.4,3.993v11.294a5.515,5.515,0,0,1-1.4,3.993,5.86,5.86,0,0,1-7.734,0,5.516,5.516,0,0,1-1.4-3.993V450.249a5.516,5.516,0,0,1,1.4-3.993,5.86,5.86,0,0,1,7.734,0Zm-5.359,2.194a2.826,2.826,0,0,0-.5,1.834v11.222a2.826,2.826,0,0,0,.5,1.835,1.839,1.839,0,0,0,1.493.629,1.814,1.814,0,0,0,1.493-.629,2.823,2.823,0,0,0,.5-1.835V450.285a2.823,2.823,0,0,0-.5-1.834,1.838,1.838,0,0,0-1.493-.629A1.814,1.814,0,0,0,1296.177,448.451Z" transform="translate(-1202.471 -444.764)" fill="#212529"/>
      <path id="Path_17" data-name="Path 17" d="M1383.369,468.1H1380.1V451.5h-4.5v-2.284a10.153,10.153,0,0,0,3.525-.845,3.746,3.746,0,0,0,1.979-1.87h2.284l-.018,21.6Z" transform="translate(-1270.554 -446.158)" fill="#212529"/>
      <path id="Path_18" data-name="Path 18" d="M1455.753,482.253H1452.3V478.8h3.453Zm0,12.338H1452.3v-3.453h3.453Z" transform="translate(-1333.328 -472.649)" fill="#212529"/>
      <path id="Path_19" data-name="Path 19" d="M1507.223,446.095a4.877,4.877,0,0,1,1.331,3.633v.809a9.152,9.152,0,0,1-.594,3.2,25.456,25.456,0,0,1-2.1,4.064l-3.633,5.827h6.331v3.093H1498.5v-2.77l4.838-7.805a14.588,14.588,0,0,0,1.529-3.057,8.324,8.324,0,0,0,.414-2.662V450c0-1.439-.612-2.158-1.816-2.158a1.557,1.557,0,0,0-1.367.611,3.3,3.3,0,0,0-.449,1.942v1.079l-3.148-.162v-1.475a4.616,4.616,0,0,1,5.036-5.036A5.092,5.092,0,0,1,1507.223,446.095Z" transform="translate(-1371.1 -444.764)" fill="#212529"/>
      <path id="Path_20" data-name="Path 20" d="M1589.436,446.257a5.514,5.514,0,0,1,1.4,3.993v11.294a5.514,5.514,0,0,1-1.4,3.993,5.86,5.86,0,0,1-7.733,0,5.515,5.515,0,0,1-1.4-3.993V450.249a5.515,5.515,0,0,1,1.4-3.993,5.86,5.86,0,0,1,7.733,0Zm-5.359,2.194a2.825,2.825,0,0,0-.5,1.834v11.222a2.825,2.825,0,0,0,.5,1.835,1.839,1.839,0,0,0,1.493.629,1.814,1.814,0,0,0,1.493-.629,2.823,2.823,0,0,0,.5-1.835V450.285a2.823,2.823,0,0,0-.5-1.834,1.838,1.838,0,0,0-1.493-.629A1.791,1.791,0,0,0,1584.077,448.451Z" transform="translate(-1438.024 -444.764)" fill="#212529"/>
      <path id="Path_21" data-name="Path 21" d="M1671.269,468.1H1668V451.5h-4.5v-2.284a10.156,10.156,0,0,0,3.525-.845A3.744,3.744,0,0,0,1669,446.5h2.284l-.018,21.6Z" transform="translate(-1506.113 -446.158)" fill="#212529"/>
      <path id="Path_22" data-name="Path 22" d="M1737.367,467.121a5.158,5.158,0,0,1-1.367-3.813v-.827l3.147-.162v.593c0,1.709.665,2.554,1.979,2.554a1.825,1.825,0,0,0,1.529-.647,2.915,2.915,0,0,0,.5-1.852v-3.633a2.913,2.913,0,0,0-.522-1.852,1.811,1.811,0,0,0-1.51-.648,1.881,1.881,0,0,0-1.349.486,2.044,2.044,0,0,0-.594,1.349l-.036.432-3.021-.126.683-12.373h8.831v3.093h-5.953l-.27,5.09h.054a3.232,3.232,0,0,1,2.553-.953,4.009,4.009,0,0,1,3.237,1.385,5.928,5.928,0,0,1,1.169,3.921V463.2a5.322,5.322,0,0,1-1.367,3.9,5.135,5.135,0,0,1-3.849,1.4A5.376,5.376,0,0,1,1737.367,467.121Z" transform="translate(-1565.416 -446.24)" fill="#212529"/>
      <path id="Path_23" data-name="Path 23" d="M1873.977,446.167a5.224,5.224,0,0,1,1.349,3.813v1.942l-3.147.162v-1.763c0-1.673-.611-2.5-1.852-2.5a1.664,1.664,0,0,0-1.366.557,2.432,2.432,0,0,0-.486,1.637V461.8a2.435,2.435,0,0,0,.486,1.637,1.688,1.688,0,0,0,1.366.557c1.241,0,1.852-.827,1.852-2.5v-2.41l3.147.162v2.59a5.225,5.225,0,0,1-1.349,3.813,5.783,5.783,0,0,1-7.446.018,5.249,5.249,0,0,1-1.331-3.831V449.98a5.306,5.306,0,0,1,1.331-3.831,5.783,5.783,0,0,1,7.446.018Z" transform="translate(-1671.127 -444.764)" fill="#212529"/>
      <path id="Path_24" data-name="Path 24" d="M1958.99,449.521h-5.917v6.115h4.784v3.021h-4.784v6.421h5.917V468.1h-9.19V446.5h9.19Z" transform="translate(-1740.352 -446.158)" fill="#212529"/>
      <path id="Path_25" data-name="Path 25" d="M2036.574,468.1l-2.59-9.136h-1.511V468.1H2029.2V446.5h4.712a5.479,5.479,0,0,1,4.047,1.4,5.564,5.564,0,0,1,1.385,4.065v1.547q0,3.426-2.32,4.748l2.985,9.838Zm-4.1-18.578v6.421h1.331a2.174,2.174,0,0,0,1.727-.647,2.994,2.994,0,0,0,.558-2.014v-1.115a3.058,3.058,0,0,0-.558-2.014,2.174,2.174,0,0,0-1.727-.647h-1.331Z" transform="translate(-1805.303 -446.158)" fill="#212529"/>
      <path id="Path_26" data-name="Path 26" d="M2116.452,449.493h-3.49V468h-3.273V449.493H2106.2V446.4h10.252v3.093Z" transform="translate(-1868.307 -446.076)" fill="#212529"/>
      <path id="Path_27" data-name="Path 27" d="M2190.974,468.1H2187.7V446.5h3.273Z" transform="translate(-1934.511 -446.158)" fill="#212529"/>
      <path id="Path_28" data-name="Path 28" d="M2247.346,449.521h-5.773v6.115h4.622v3.021h-4.622V468.1H2238.3V446.5h9.046Zm5.431,18.578H2249.5V446.5h3.273Z" transform="translate(-1976.011 -446.158)" fill="#212529"/>
      <path id="Path_29" data-name="Path 29" d="M2360.39,449.521h-5.917v6.115h4.784v3.021h-4.784v6.421h5.917V468.1h-9.19V446.5h9.19Z" transform="translate(-2068.606 -446.158)" fill="#212529"/>
      <path id="Path_30" data-name="Path 30" d="M2439.341,447.9a5.562,5.562,0,0,1,1.385,4.065V462.65a5.59,5.59,0,0,1-1.385,4.065,5.424,5.424,0,0,1-4.047,1.4H2430.6V446.5h4.694A5.479,5.479,0,0,1,2439.341,447.9Zm-5.467,1.619v15.557h1.294a2.173,2.173,0,0,0,1.727-.647,2.991,2.991,0,0,0,.558-2.014V452.165a3.055,3.055,0,0,0-.558-2.014,2.173,2.173,0,0,0-1.727-.647h-1.294Z" transform="translate(-2133.727 -446.158)" fill="#212529"/>
    </g>
    <g id="Group_8" data-name="Group 8" transform="translate(45.37 214.321)">
      <g id="Group_4" data-name="Group 4" transform="translate(23.938 23.956)">
        <g id="Group_3" data-name="Group 3" transform="translate(0 0)">
          <path id="Path_31" data-name="Path 31" d="M194.9,196.264h0l7.859-7.859a3.237,3.237,0,0,1,2.32-.953,3.312,3.312,0,0,1,2.32.953l8.4,8.4h0l15.683,15.683a27.932,27.932,0,0,0,1.1-7.7,27.589,27.589,0,1,0-54.044,7.859Z" transform="translate(-177.4 -177.2)" fill="#f5a403"/>
          <path id="Path_32" data-name="Path 32" d="M248.647,345.7,230.5,363.829a27.589,27.589,0,0,0,36.167-.09Z" transform="translate(-220.95 -315.396)" fill="#f5a403"/>
        </g>
      </g>
      <g id="Group_6" data-name="Group 6" transform="translate(0 0)">
        <g id="Group_5" data-name="Group 5" transform="translate(0 0)">
          <path id="Path_33" data-name="Path 33" d="M140.429,121.334a51.526,51.526,0,1,0-89.132.126l8.327-8.327a40.258,40.258,0,1,1,72.461-.144l8.291,8.291Z" transform="translate(-44.3 -44)" fill="#f5a403"/>
        </g>
      </g>
      <g id="Group_7" data-name="Group 7" transform="translate(16.546 81.291)">
        <path id="Path_34" data-name="Path 34" d="M206.369,503.967a51.51,51.51,0,0,1-70.069.09l7.967-7.967A40.256,40.256,0,0,0,198.4,496l7.949,7.949Z" transform="translate(-136.3 -496)" fill="#f5a403"/>
      </g>
    </g>
  </g>
</svg>
