<?xml version="1.0" encoding="UTF-8"?>
<svg width="449px" height="185px" viewBox="0 0 449 185" version="1.1" xmlns="http://www.w3.org/2000/svg" xmlns:xlink="http://www.w3.org/1999/xlink">
    <!-- Generator: Sketch 58 (84663) - https://sketch.com -->
    <title>footerLogo</title>
    <desc>Created with Sketch.</desc>
    <g id="Page-1" stroke="none" stroke-width="1" fill="none" fill-rule="evenodd">
        <g id="Apple-TV" transform="translate(-240.000000, -861.000000)" fill-rule="nonzero">
            <g id="footerLogo" transform="translate(240.000000, 861.000000)">
                <g id="Group" transform="translate(207.000000, 52.000000)" fill="#FFFFFF" stroke="#FFFFFF" stroke-width="2">
                    <path d="M14.528189,20.3132143 C14.528189,18.7189286 14.0514436,17.5360714 13.1230446,16.7646429 C12.1946457,15.9932143 10.9400525,15.6075 9.38435696,15.6075 C8.20503937,15.6075 7.10099738,15.8389286 6.07223097,16.3017857 C5.0183727,16.7646429 4.16524934,17.3560714 3.46267717,18.0760714 L1.25459318,15.3760714 C2.28335958,14.3732143 3.53795276,13.6017857 5.0183727,13.0360714 C6.49879265,12.4703571 8.07958005,12.1875 9.78582677,12.1875 C11.2913386,12.1875 12.5710236,12.3932143 13.6750656,12.8303571 C14.7791076,13.2675 15.6824147,13.8589286 16.3849869,14.6046429 C17.0875591,15.3503571 17.6144882,16.2503571 17.9657743,17.2532143 C18.3170604,18.2817857 18.4927034,19.3617857 18.4927034,20.5446429 L18.4927034,29.9046429 C18.4927034,30.6246429 18.5177953,31.3960714 18.567979,32.1932143 C18.6181627,32.9903571 18.6934383,33.6332143 18.8188976,34.1475 L15.0551181,34.1475 C14.8292913,33.1189286 14.703832,32.1160714 14.703832,31.0875 L14.5783727,31.0875 C13.8256168,32.2189286 12.8470341,33.1189286 11.6928084,33.7360714 C10.5385827,34.3789286 9.15853018,34.6875 7.57774278,34.6875 C6.74971129,34.6875 5.89658793,34.5846429 4.99328084,34.3532143 C4.08997375,34.1217857 3.28703412,33.7617857 2.55937008,33.2475 C1.83170604,32.7332143 1.22950131,32.0646429 0.727664042,31.2160714 C0.250918635,30.3675 0,29.3389286 0,28.1046429 C0,26.4846429 0.42656168,25.1989286 1.27968504,24.2475 C2.1328084,23.2960714 3.23685039,22.5760714 4.61690289,22.0875 C5.99695538,21.5989286 7.55265092,21.2646429 9.2839895,21.1103571 C11.0153281,20.9560714 12.7717585,20.8789286 14.528189,20.8789286 C14.528189,20.8789286 14.528189,20.3132143 14.528189,20.3132143 Z M13.5245144,23.9646429 C12.495748,23.9646429 11.4418898,24.0160714 10.3378478,24.0932143 C9.23380577,24.1960714 8.23013123,24.3760714 7.35191601,24.6332143 C6.44860892,24.9160714 5.72094488,25.3017857 5.11874016,25.8417857 C4.5416273,26.3817857 4.24052493,27.1017857 4.24052493,28.0017857 C4.24052493,28.6446429 4.36598425,29.1589286 4.61690289,29.5703571 C4.86782152,29.9817857 5.19401575,30.3417857 5.59548556,30.5989286 C5.99695538,30.8817857 6.44860892,31.0617857 6.95044619,31.1646429 C7.45228346,31.2675 7.95412073,31.3189286 8.48104987,31.3189286 C10.4131234,31.3189286 11.8935433,30.7275 12.9474016,29.5446429 C13.976168,28.3617857 14.5030971,26.8703571 14.5030971,25.0446429 L14.5030971,23.9132143 L13.5245144,23.9132143 L13.5245144,23.9646429 L13.5245144,23.9646429 Z" id="Shape"></path>
                    <path d="M34.1869312,13.3475877 C35.3667764,12.5657895 36.7774609,12.1875 38.3933359,12.1875 C39.8296692,12.1875 41.1377585,12.5153509 42.2919549,13.1710526 C43.4461513,13.8267544 44.3438596,14.8859649 45.0107287,16.3991228 C45.7288953,15.0372807 46.7291989,14.0032895 48.0372881,13.2719298 C49.3197286,12.5405702 50.7304131,12.1875 52.2693416,12.1875 C53.6543773,12.1875 54.8342225,12.4144737 55.8345261,12.8684211 C56.8348296,13.3223684 57.6555915,13.9276316 58.2968118,14.7094298 C58.9636808,15.4660088 59.4510082,16.3739035 59.7587939,17.4078947 C60.0665796,18.441886 60.2204724,19.5515351 60.2204724,20.7368421 L60.2204724,33.75 L55.9884189,33.75 L55.9884189,22.1239035 C55.9884189,21.2664474 55.9114725,20.4594298 55.7575797,19.7028509 C55.6036868,18.9462719 55.3471987,18.2653509 54.9881154,17.6600877 C54.6290321,17.0800439 54.1417047,16.6008772 53.5517821,16.247807 C52.9618595,15.8947368 52.1923952,15.7182018 51.2690381,15.7182018 C50.3200321,15.7182018 49.4736214,15.9199561 48.8067524,16.3234649 C48.1142346,16.7269737 47.5499608,17.2313596 47.113931,17.8618421 C46.6779012,18.4923246 46.3701155,19.1984649 46.1649251,20.0054825 C45.9597346,20.8125 45.8827882,21.6195175 45.8827882,22.4265351 L45.8827882,33.75 L41.6507347,33.75 L41.6507347,21.2664474 C41.6507347,20.4342105 41.5737882,19.6776316 41.4198954,19.0219298 C41.2660025,18.3410088 41.0095144,17.7609649 40.6504311,17.2817982 C40.2913478,16.8026316 39.8296692,16.4243421 39.2653954,16.1217105 C38.7011216,15.8442982 37.982955,15.6929825 37.1621931,15.6929825 C35.5976157,15.6929825 34.3151753,16.3234649 33.2635741,17.5844298 C32.2376217,18.8453947 31.6989967,20.5098684 31.6989967,22.6030702 L31.6989967,33.75 L27.4669432,33.75 L27.4669432,17.3070175 C27.4669432,16.752193 27.4412944,16.0208333 27.4156456,15.1381579 C27.3899968,14.2554825 27.3386992,13.4736842 27.2874016,12.7927632 L31.2886158,12.7927632 C31.3399134,13.3223684 31.391211,13.9276316 31.4168598,14.5833333 C31.4425086,15.2390351 31.4681575,15.7938596 31.4681575,16.247807 L31.5964015,16.247807 C32.1350265,15.0877193 33.007086,14.129386 34.1869312,13.3475877 Z" id="Path"></path>
                    <path d="M71.9822835,45 L67.7480315,45 L67.7480315,12.7794118 L71.8796349,12.7794118 L71.8796349,16.125 L72.0079456,16.125 C72.7008232,14.9926471 73.7016464,14.0404412 75.0360773,13.2941176 C76.3705082,12.5477941 77.9102362,12.1875 79.6809234,12.1875 C81.2719757,12.1875 82.7090551,12.4705882 84.0178239,13.0367647 C85.3265927,13.6029412 86.4300644,14.4007353 87.3795634,15.4301471 C88.3290623,16.4595588 89.047602,17.6433824 89.5608447,19.0073529 C90.0740873,20.3713235 90.3307087,21.8382353 90.3307087,23.4080882 C90.3307087,24.9779412 90.0740873,26.4448529 89.5608447,27.8345588 C89.047602,29.2242647 88.3290623,30.4338235 87.4052255,31.4375 C86.4813887,32.4669118 85.3522548,33.2647059 84.043486,33.8566176 C82.7347173,34.4485294 81.2463135,34.7316176 79.603937,34.7316176 C78.0898712,34.7316176 76.6527917,34.3970588 75.2926986,33.7279412 C73.9326056,33.0588235 72.8804581,32.1323529 72.1105941,30.9227941 L71.9822835,30.9227941 L71.9822835,45 L71.9822835,45 Z M86.0194703,23.4338235 C86.0194703,22.4301471 85.8654975,21.4779412 85.5575519,20.5514706 C85.2496063,19.625 84.81335,18.8014706 84.1974588,18.0808824 C83.6072298,17.3602941 82.8630279,16.7941176 81.9648533,16.3566176 C81.0666786,15.9448529 80.0401933,15.7132353 78.8853973,15.7132353 C77.8075877,15.7132353 76.8324266,15.9191176 75.934252,16.3566176 C75.0360773,16.7683824 74.2918754,17.3602941 73.6503221,18.0808824 C73.0087688,18.8014706 72.5211883,19.625 72.1875805,20.5514706 C71.8539728,21.4779412 71.6743379,22.4558824 71.6743379,23.4852941 C71.6743379,24.5147059 71.8539728,25.4926471 72.1875805,26.4191176 C72.5211883,27.3455882 73.0087688,28.1691176 73.6503221,28.8897059 C74.2918754,29.5845588 75.0360773,30.1507353 75.934252,30.5882353 C76.8067645,31 77.8075877,31.2316176 78.8853973,31.2316176 C80.0658554,31.2316176 81.0923407,31.0257353 81.9648533,30.5882353 C82.8373658,30.1507353 83.5815676,29.5845588 84.1974588,28.8382353 C84.7876879,28.1176471 85.2496063,27.2941176 85.5575519,26.3676471 C85.8911596,25.3897059 86.0194703,24.4117647 86.0194703,23.4338235 Z" id="Shape"></path>
                    <polygon id="Path" points="101.622047 33.75 97.8582677 33.75 97.8582677 0 101.622047 0"></polygon>
                    <path d="M130.791339,23.2707383 C130.791339,23.5016391 130.791339,23.7581956 130.791339,23.9890964 C130.791339,24.2199971 130.765264,24.4765536 130.73919,24.7074544 L113.504027,24.7074544 C113.530102,25.6054019 113.738697,26.4520382 114.129812,27.2217075 C114.520928,28.0170325 115.016341,28.6840792 115.6682,29.2741591 C116.32006,29.8642389 117.050142,30.3003848 117.884522,30.6339082 C118.718902,30.9674316 119.605431,31.1213655 120.570183,31.1213655 C122.030348,31.1213655 123.307993,30.8134977 124.377042,30.1721066 C125.446091,29.5307155 126.280471,28.7867018 126.880182,27.8887543 L129.90481,30.2747292 C128.757537,31.7884122 127.375595,32.8916049 125.811133,33.6099629 C124.24667,34.328321 122.499687,34.6875 120.570183,34.6875 C118.927497,34.6875 117.389109,34.4052879 116.007167,33.8665194 C114.599151,33.3277509 113.39973,32.5580815 112.382829,31.583167 C111.365928,30.6082526 110.583697,29.4280929 110.010061,28.0426881 C109.436424,26.6572834 109.149606,25.1436003 109.149606,23.4503278 C109.149606,21.8083666 109.436424,20.2690279 109.983986,18.8836231 C110.557623,17.4982184 111.339854,16.2924031 112.356755,15.3174886 C113.373655,14.3169185 114.547002,13.5472491 115.928944,13.0084806 C117.310886,12.4440564 118.797126,12.1875 120.361588,12.1875 C121.952125,12.1875 123.386216,12.4440564 124.689935,12.9571693 C125.993653,13.4702822 127.088777,14.2142959 128.00138,15.1635547 C128.913983,16.1128136 129.591917,17.2929732 130.08733,18.6527223 C130.556669,20.0381271 130.791339,21.5774658 130.791339,23.2707383 Z M126.410843,21.5774658 C126.384769,20.7308295 126.228323,19.9611602 125.967579,19.2171465 C125.706835,18.4731328 125.31572,17.8573974 124.820306,17.2929732 C124.324893,16.7542047 123.699108,16.3180587 122.942951,16.010191 C122.186794,15.7023233 121.32634,15.5483894 120.309439,15.5483894 C119.396836,15.5483894 118.536382,15.7023233 117.728076,16.010191 C116.91977,16.3180587 116.215762,16.7542047 115.616052,17.2929732 C115.016341,17.8317417 114.520928,18.4731328 114.155887,19.2171465 C113.764771,19.9611602 113.556176,20.7308295 113.504027,21.5774658 L126.410843,21.5774658 Z" id="Shape"></path>
                    <polygon id="Path" points="139.180174 12.1875 144.037775 28.6642599 144.141129 28.6642599 149.257113 12.1875 153.752978 12.1875 158.972315 28.6642599 159.075668 28.6642599 163.933269 12.1875 168.429134 12.1875 161.3236 33.75 156.879412 33.75 151.58256 17.5586643 151.479207 17.5586643 146.234031 33.75 141.789843 33.75 134.555118 12.1875"></polygon>
                    <path d="M194.775591,23.3989286 C194.775591,25.0446429 194.498348,26.5617857 193.918659,27.9503571 C193.338969,29.3389286 192.557649,30.5217857 191.52429,31.5246429 C190.516135,32.5275 189.306348,33.3246429 187.920135,33.8646429 C186.533922,34.4303571 185.046893,34.6875 183.459048,34.6875 C181.871204,34.6875 180.384175,34.4046429 178.997961,33.8646429 C177.611748,33.2989286 176.427165,32.5275 175.41901,31.5246429 C174.410855,30.5217857 173.629535,29.3132143 173.049845,27.9503571 C172.470156,26.5617857 172.192913,25.0446429 172.192913,23.3989286 C172.192913,21.7532143 172.470156,20.2360714 173.049845,18.8732143 C173.629535,17.5103571 174.410855,16.3275 175.41901,15.3246429 C176.427165,14.3217857 177.611748,13.5503571 178.997961,13.0103571 C180.384175,12.4446429 181.871204,12.1875 183.459048,12.1875 C185.046893,12.1875 186.533922,12.4703571 187.920135,13.0103571 C189.306348,13.5760714 190.516135,14.3475 191.52429,15.3246429 C192.532445,16.3275 193.338969,17.4846429 193.918659,18.8732143 C194.498348,20.2360714 194.775591,21.7275 194.775591,23.3989286 Z M190.440523,23.4246429 C190.440523,22.3960714 190.2893,21.4189286 189.986853,20.4932143 C189.684407,19.5675 189.230737,18.7446429 188.625844,18.0503571 C188.046154,17.3560714 187.290038,16.7903571 186.433106,16.3532143 C185.55097,15.9417857 184.568019,15.7360714 183.433844,15.7360714 C182.29967,15.7360714 181.316718,15.9417857 180.434582,16.3532143 C179.552447,16.7646429 178.821534,17.3303571 178.241845,18.0503571 C177.662156,18.7703571 177.208486,19.5675 176.880835,20.4932143 C176.578389,21.4189286 176.427165,22.3960714 176.427165,23.4246429 C176.427165,24.4532143 176.578389,25.4303571 176.880835,26.3560714 C177.183282,27.2817857 177.636952,28.1046429 178.241845,28.8246429 C178.821534,29.5446429 179.552447,30.1103571 180.434582,30.5217857 C181.316718,30.9332143 182.29967,31.1389286 183.433844,31.1389286 C184.568019,31.1389286 185.55097,30.9332143 186.433106,30.5217857 C187.315242,30.1103571 188.046154,29.5446429 188.625844,28.8246429 C189.205533,28.1046429 189.659203,27.2817857 189.986853,26.3560714 C190.2893,25.4046429 190.440523,24.4275 190.440523,23.4246429 Z" id="Shape"></path>
                    <path d="M201.487535,15.0877193 C201.462469,14.2050439 201.412337,13.4232456 201.362205,12.7423246 L205.272525,12.7423246 C205.322657,13.2719298 205.372789,13.877193 205.397856,14.5833333 C205.422922,15.2642544 205.447988,15.8442982 205.447988,16.2982456 L205.573319,16.2982456 C206.14984,15.0625 207.027156,14.0537281 208.155133,13.3223684 C209.28311,12.5657895 210.561483,12.1875 211.965188,12.1875 C212.616908,12.1875 213.143297,12.2379386 213.594488,12.3640351 L213.419025,16.2225877 C212.842504,16.0712719 212.190784,15.995614 211.539064,15.995614 C210.536417,15.995614 209.684168,16.1721491 208.95725,16.5504386 C208.230331,16.9287281 207.628743,17.4078947 207.12742,18.0383772 C206.651163,18.6688596 206.275171,19.375 206.049576,20.1820175 C205.82398,20.9890351 205.698649,21.8464912 205.698649,22.7291667 L205.698649,33.75 L201.562734,33.75 L201.562734,17.3070175 C201.537668,16.6765351 201.512602,15.9703947 201.487535,15.0877193 Z" id="Path"></path>
                    <polygon id="Path" points="223.432414 21.7873303 223.560227 21.7873303 232.481553 12.5989819 238.130874 12.5989819 228.187046 22.1945701 239 33.75 233.171741 33.75 223.585789 22.7799774 223.457976 22.7799774 223.457976 33.75 219.240157 33.75 219.240157 0 223.457976 0"></polygon>
                </g>
                <g id="Group" opacity="0.6" transform="translate(205.000000, 108.000000)" fill="#FFFFFF">
                    <polygon id="Path" points="2.81467181 18 0 18 0 0.947368421 2.81467181 0.947368421"></polygon>
                    <path d="M13.6755046,0.967365156 C14.3702654,1.64346975 14.7176458,2.63162261 14.7176458,3.87981569 L14.7176458,4.32188408 L12.0989321,4.58192431 L12.0989321,3.93182374 C12.0989321,3.43774731 11.9653243,3.04768697 11.7515517,2.78764674 C11.5110576,2.52760652 11.1636772,2.3975864 10.7094106,2.3975864 C10.2551439,2.3975864 9.90776355,2.52760652 9.66726944,2.78764674 C9.42677533,3.04768697 9.31988906,3.43774731 9.31988906,3.93182374 L9.31988906,4.16585994 C9.31988906,4.71194442 9.48021846,5.23202487 9.80087728,5.7261013 C10.1215361,6.24618176 10.7361322,6.84427428 11.5912223,7.57238691 C12.847136,8.61254782 13.7289478,9.54869263 14.2366575,10.3808214 C14.7443673,11.2129501 15.011583,12.1490949 15.011583,13.1892558 L15.011583,14.0733926 C15.011583,15.3215857 14.6374811,16.2837345 13.9159987,16.9858431 C13.1945164,17.6619477 12.1523753,18 10.7895753,18 C9.42677533,18 8.38463418,17.6619477 7.66315185,16.9858431 C6.94166952,16.3097385 6.56756757,15.3215857 6.56756757,14.0733926 L6.56756757,12.9032116 L9.18628122,12.6431713 L9.18628122,13.8913644 C9.18628122,14.9835334 9.69399101,15.5556219 10.7361322,15.5556219 C11.7782733,15.5556219 12.2859831,15.0095374 12.2859831,13.8913644 L12.2859831,13.3192759 C12.2859831,12.7471874 12.1256537,12.2011029 11.7782733,11.7070265 C11.4308929,11.1869461 10.8162969,10.5628495 9.93448512,9.83473688 C8.705293,8.82058 7.82348126,7.88443518 7.34249304,7.07831048 C6.83478325,6.24618176 6.59428914,5.31003694 6.59428914,4.29588006 L6.59428914,3.93182374 C6.59428914,2.68363065 6.94166952,1.72148181 7.63643028,1.0193732 C8.33119105,0.343268613 9.34661063,0.00521631798 10.6559675,0.00521631798 C11.9653243,-0.0467917273 12.9807439,0.291260567 13.6755046,0.967365156 Z" id="Path"></path>
                    <path d="M25.1444015,1.19136691 C25.8864514,1.9942446 26.2702703,3.05611511 26.2702703,4.42877698 L26.2702703,13.571223 C26.2702703,14.9438849 25.8864514,16.0057554 25.1444015,16.8086331 C24.4023517,17.6115108 23.3532468,18 22.0482625,18 C20.7432783,18 19.6941734,17.6115108 18.9521236,16.8086331 C18.2100737,16.0316547 17.8262548,14.9438849 17.8262548,13.571223 L17.8262548,4.42877698 C17.8262548,3.05611511 18.2100737,1.9942446 18.9521236,1.19136691 C19.6941734,0.414388489 20.7432783,0 22.0482625,0 C23.3788347,0.0258992806 24.4023517,0.414388489 25.1444015,1.19136691 Z M20.871218,2.97841727 C20.5897508,3.31510791 20.4618112,3.80719424 20.4618112,4.45467626 L20.4618112,13.5453237 C20.4618112,14.1928058 20.5897508,14.6848921 20.871218,15.0215827 C21.1526852,15.3582734 21.536504,15.5395683 22.0738505,15.5395683 C22.6111969,15.5395683 22.9950158,15.3582734 23.276483,15.0215827 C23.5579502,14.6848921 23.6858898,14.1928058 23.6858898,13.5453237 L23.6858898,4.45467626 C23.6858898,3.80719424 23.5579502,3.31510791 23.276483,2.97841727 C22.9950158,2.64172662 22.6111969,2.46043165 22.0738505,2.46043165 C21.536504,2.46043165 21.1270972,2.64172662 20.871218,2.97841727 Z" id="Shape"></path>
                    <path d="M43.9321865,1.02914956 C44.685156,1.74066037 45.034749,2.74204596 45.034749,4.03330632 L45.034749,4.69211262 C45.034749,5.56173695 44.8733984,6.45771352 44.5506972,7.32733785 C44.227996,8.19696217 43.6363771,9.30375676 42.7758404,10.6740739 L39.7101788,15.4701838 L45.0078573,15.4701838 L45.0078573,18 L36.5907336,18 L36.5907336,15.7073541 L40.6513907,9.27740451 C41.2699014,8.30237118 41.7001697,7.48545136 41.9421956,6.77394055 C42.1842215,6.06242974 42.2917886,5.32456668 42.2917886,4.58670362 L42.2917886,4.24412434 C42.2917886,3.05827299 41.780845,2.47852344 40.7589578,2.47852344 C40.2480142,2.47852344 39.8446376,2.63663695 39.6026117,2.97921623 C39.3605858,3.32179551 39.2261269,3.84884055 39.2261269,4.58670362 L39.2261269,5.48268019 L36.5907336,5.35091893 L36.5907336,4.13871533 C36.5907336,2.84745497 36.9672184,1.81971713 37.6932961,1.08185407 C38.4462656,0.343991007 39.4681529,0.0014117278 40.8127413,0.0014117278 C42.130438,-0.0249405244 43.179217,0.317638755 43.9321865,1.02914956 Z" id="Path"></path>
                    <polygon id="Path" points="55.3552124 3.22442605 50.304836 18 47.4990714 18 52.5761693 3.47743245 46.9111969 3.47743245 46.9111969 0.947368421 55.3552124 0.947368421"></polygon>
                    <path d="M65.4880309,1.19136691 C66.2300807,1.9942446 66.6138996,3.05611511 66.6138996,4.42877698 L66.6138996,13.571223 C66.6138996,14.9438849 66.2300807,16.0057554 65.4880309,16.8086331 C64.745981,17.6115108 63.6968761,18 62.3918919,18 C61.0869077,18 60.0378027,17.6115108 59.2957529,16.8086331 C58.5537031,16.0316547 58.1698842,14.9438849 58.1698842,13.571223 L58.1698842,4.42877698 C58.1698842,3.05611511 58.5537031,1.9942446 59.2957529,1.19136691 C60.0378027,0.414388489 61.0869077,0 62.3918919,0 C63.6968761,0.0258992806 64.7203931,0.414388489 65.4880309,1.19136691 Z M61.1892594,2.97841727 C60.9077922,3.31510791 60.7798526,3.80719424 60.7798526,4.45467626 L60.7798526,13.5453237 C60.7798526,14.1928058 60.9077922,14.6848921 61.1892594,15.0215827 C61.4707266,15.3582734 61.8545455,15.5395683 62.3918919,15.5395683 C62.9292383,15.5395683 63.3130572,15.3582734 63.5945244,15.0215827 C63.8759916,14.6848921 64.0039312,14.1928058 64.0039312,13.5453237 L64.0039312,4.45467626 C64.0039312,3.80719424 63.8759916,3.31510791 63.5945244,2.97841727 C63.3130572,2.64172662 62.9292383,2.46043165 62.3918919,2.46043165 C61.8545455,2.46043165 61.4451386,2.64172662 61.1892594,2.97841727 Z" id="Shape"></path>
                    <path d="M78.623166,1.19136691 C79.3652159,1.9942446 79.7490347,3.05611511 79.7490347,4.42877698 L79.7490347,13.571223 C79.7490347,14.9438849 79.3652159,16.0057554 78.623166,16.8086331 C77.8811162,17.6115108 76.8320112,18 75.527027,18 C74.2220428,18 73.1729379,17.6115108 72.430888,16.8086331 C71.6888382,16.0316547 71.3050193,14.9438849 71.3050193,13.571223 L71.3050193,4.42877698 C71.3050193,3.05611511 71.6888382,1.9942446 72.430888,1.19136691 C73.1729379,0.414388489 74.2220428,0 75.527027,0 C76.8320112,0.0258992806 77.8811162,0.414388489 78.623166,1.19136691 Z M74.3243945,2.97841727 C74.0429273,3.31510791 73.9149877,3.80719424 73.9149877,4.45467626 L73.9149877,13.5453237 C73.9149877,14.1928058 74.0429273,14.6848921 74.3243945,15.0215827 C74.6058617,15.3582734 74.9896806,15.5395683 75.527027,15.5395683 C76.0643735,15.5395683 76.4481923,15.3582734 76.7296595,15.0215827 C77.0111267,14.6848921 77.1390663,14.1928058 77.1390663,13.5453237 L77.1390663,4.45467626 C77.1390663,3.80719424 77.0111267,3.31510791 76.7296595,2.97841727 C76.4481923,2.64172662 76.0643735,2.46043165 75.527027,2.46043165 C74.9896806,2.46043165 74.6058617,2.64172662 74.3243945,2.97841727 Z" id="Shape"></path>
                    <path d="M89.1312741,18 L86.3745174,18 L86.3745174,4.87479471 L82.5637066,4.87479471 L82.5637066,3.07578009 C83.6988417,2.99976539 84.6988417,2.77172128 85.5366795,2.416986 C86.3745174,2.06225072 86.9150579,1.55548604 87.2123552,0.947368421 L89.1312741,0.947368421 L89.1312741,18 Z" id="Path"></path>
                    <path d="M96.6370656,7.42936288 L93.8223938,7.42936288 L93.8223938,4.73684211 L96.6370656,4.73684211 L96.6370656,7.42936288 Z M96.6370656,17.0526316 L93.8223938,17.0526316 L93.8223938,14.3601108 L96.6370656,14.3601108 L96.6370656,17.0526316 Z" id="Shape"></path>
                    <path d="M107.734915,1.02914956 C108.485494,1.74066037 108.833977,2.74204596 108.833977,4.03330632 L108.833977,4.69211262 C108.833977,5.56173695 108.673138,6.45771352 108.351462,7.32733785 C108.029785,8.19696217 107.440044,9.30375676 106.582239,10.6740739 L103.52631,15.4701838 L108.80717,15.4701838 L108.80717,18 L100.389961,18 L100.389961,15.7073541 L104.437728,9.27740451 C105.054275,8.30237118 105.483177,7.48545136 105.724435,6.77394055 C105.965692,6.06242974 106.072918,5.32456668 106.072918,4.58670362 L106.072918,4.24412434 C106.072918,3.05827299 105.563596,2.47852344 104.544953,2.47852344 C104.035632,2.47852344 103.633536,2.63663695 103.392278,2.97921623 C103.15102,3.32179551 103.016988,3.84884055 103.016988,4.58670362 L103.016988,5.48268019 L100.389961,5.35091893 L100.389961,4.13871533 C100.389961,2.84745497 100.765251,1.81971713 101.489024,1.08185407 C102.239603,0.343991007 103.258246,0.0014117278 104.598566,0.0014117278 C105.965692,-0.0249405244 106.984335,0.317638755 107.734915,1.02914956 Z" id="Path"></path>
                    <path d="M119.905019,1.19136691 C120.647069,1.9942446 121.030888,3.05611511 121.030888,4.42877698 L121.030888,13.571223 C121.030888,14.9438849 120.647069,16.0057554 119.905019,16.8086331 C119.162969,17.6115108 118.113865,18 116.80888,18 C115.503896,18 114.454791,17.6115108 113.712741,16.8086331 C112.970691,16.0316547 112.586873,14.9438849 112.586873,13.571223 L112.586873,4.42877698 C112.586873,3.05611511 112.970691,1.9942446 113.712741,1.19136691 C114.454791,0.414388489 115.503896,0 116.80888,0 C118.139452,0.0258992806 119.162969,0.414388489 119.905019,1.19136691 Z M115.631836,2.97841727 C115.350369,3.31510791 115.222429,3.80719424 115.222429,4.45467626 L115.222429,13.5453237 C115.222429,14.1928058 115.350369,14.6848921 115.631836,15.0215827 C115.913303,15.3582734 116.297122,15.5395683 116.834468,15.5395683 C117.371815,15.5395683 117.755634,15.3582734 118.037101,15.0215827 C118.318568,14.6848921 118.446508,14.1928058 118.446508,13.5453237 L118.446508,4.45467626 C118.446508,3.80719424 118.318568,3.31510791 118.037101,2.97841727 C117.755634,2.64172662 117.371815,2.46043165 116.834468,2.46043165 C116.297122,2.46043165 115.887715,2.64172662 115.631836,2.97841727 Z" id="Shape"></path>
                    <path d="M130.413127,18 L127.656371,18 L127.656371,4.87479471 L123.84556,4.87479471 L123.84556,3.07578009 C124.980695,2.99976539 125.980695,2.77172128 126.818533,2.416986 C127.656371,2.06225072 128.196911,1.55548604 128.494208,0.947368421 L130.413127,0.947368421 L130.413127,18 Z" id="Path"></path>
                    <path d="M136.214622,16.9148233 C135.465765,16.1507581 135.104247,15.1232221 135.104247,13.7795212 L135.104247,13.0944972 L137.634869,12.9627618 L137.634869,13.4370092 C137.634869,14.8334043 138.177146,15.5447753 139.235875,15.5447753 C139.778152,15.5447753 140.191315,15.3603458 140.475364,15.0178338 C140.759413,14.6753218 140.888527,14.1483803 140.888527,13.4897033 L140.888527,10.4861366 C140.888527,9.82745966 140.759413,9.3268652 140.475364,8.95800612 C140.191315,8.61549412 139.778152,8.43106458 139.261698,8.43106458 C138.822713,8.43106458 138.461195,8.56279997 138.177146,8.82627074 C137.893096,9.0897415 137.73816,9.45860058 137.686515,9.93284796 L137.660692,10.27536 L135.23336,10.1699717 L135.775637,0 L142.902696,0 L142.902696,2.52931938 L138.099678,2.52931938 L137.867274,6.71850459 L137.918919,6.71850459 C138.357904,6.19156305 139.055117,5.92809229 139.984733,5.92809229 C141.095108,5.92809229 141.973079,6.29695136 142.592823,7.06101659 C143.212568,7.82508182 143.548263,8.90531197 143.548263,10.27536 L143.548263,13.6214387 C143.548263,14.9914867 143.186745,16.0717169 142.437887,16.8357821 C141.68903,17.5998473 140.656123,17.9950535 139.339166,17.9950535 C137.996387,18.0477476 136.96348,17.6788885 136.214622,16.9148233 Z" id="Path"></path>
                    <path d="M160.252212,1.0937071 C161.000415,1.84798786 161.374517,2.86236544 161.374517,4.18885919 L161.374517,5.77544975 L158.755804,5.90549816 L158.755804,4.448956 C158.755804,3.09645257 158.248094,2.42020085 157.205953,2.42020085 C156.698243,2.42020085 156.324141,2.57625894 156.056925,2.86236544 C155.78971,3.17448161 155.656102,3.6166462 155.656102,4.18885919 L155.656102,13.7604219 C155.656102,14.3326349 155.78971,14.7747995 156.056925,15.0869157 C156.324141,15.3990319 156.698243,15.5290803 157.205953,15.5290803 C158.248094,15.5290803 158.755804,14.8528286 158.755804,13.5003251 L158.755804,11.549599 L161.374517,11.6796474 L161.374517,13.7864316 C161.374517,15.1129254 161.000415,16.1273029 160.252212,16.8815837 C159.504008,17.6358645 158.461866,18 157.125788,18 C155.816431,18 154.77429,17.6358645 154.026086,16.9075934 C153.277882,16.1793223 152.930502,15.138935 152.930502,13.8124413 L152.930502,4.18885919 C152.930502,2.86236544 153.304604,1.82197818 154.026086,1.0937071 C154.77429,0.365436023 155.78971,0.00130048407 157.125788,0.00130048407 C158.461866,-0.0247091973 159.504008,0.339426342 160.252212,1.0937071 Z" id="Path"></path>
                    <polygon id="Path" points="172.633205 3.35092925 167.794977 3.35092925 167.794977 8.18335155 171.691712 8.18335155 171.691712 10.5616117 167.794977 10.5616117 167.794977 15.6217398 172.633205 15.6217398 172.633205 18 165.127413 18 165.127413 0.947368421 172.633205 0.947368421"></polygon>
                    <path d="M183.087302,18 L181.057732,10.7893175 L179.88008,10.7893175 L179.88008,18 L177.324324,18 L177.324324,0.947368421 L181.007619,0.947368421 C182.385722,0.947368421 183.438092,1.32687803 184.164729,2.0605966 C184.891365,2.79431516 185.242155,3.85694206 185.242155,5.27377792 L185.242155,6.48820865 C185.242155,8.28455412 184.640801,9.54958613 183.438092,10.2327034 L185.76834,18 L183.087302,18 Z M179.88008,3.32562861 L179.88008,8.38575668 L180.907393,8.38575668 C181.508747,8.38575668 181.959763,8.20865219 182.26044,7.87974387 C182.561117,7.55083555 182.686399,7.0195221 182.686399,6.28580353 L182.686399,5.40028112 C182.686399,4.69186319 182.536061,4.16054974 182.26044,3.80634078 C181.959763,3.47743245 181.508747,3.30032797 180.907393,3.30032797 L179.88008,3.32562861 L179.88008,3.32562861 Z" id="Shape"></path>
                    <polygon id="Path" points="196.088803 3.37622989 193.21256 3.37622989 193.21256 18 190.52103 18 190.52103 3.37622989 187.644788 3.37622989 187.644788 0.947368421 196.088803 0.947368421"></polygon>
                    <polygon id="Path" points="202.656371 18 199.841699 18 199.841699 0.947368421 202.656371 0.947368421"></polygon>
                    <path d="M214.371716,3.32562861 L209.888168,3.32562861 L209.888168,8.15805091 L213.499915,8.15805091 L213.499915,10.5363111 L209.888168,10.5363111 L209.888168,18 L207.34749,18 L207.34749,0.947368421 L214.371716,0.947368421 L214.371716,3.32562861 Z M218.606178,18 L216.0655,18 L216.0655,0.947368421 L218.606178,0.947368421 L218.606178,18 Z" id="Shape"></path>
                    <polygon id="Path" points="230.803089 3.35092925 225.964861 3.35092925 225.964861 8.18335155 229.861596 8.18335155 229.861596 10.5616117 225.964861 10.5616117 225.964861 15.6217398 230.803089 15.6217398 230.803089 18 223.297297 18 223.297297 0.947368421 230.803089 0.947368421"></polygon>
                    <path d="M241.847325,2.03640763 C242.62471,2.77007511 243,3.83262801 243,5.24936521 L243,13.6738918 C243,15.0653301 242.62471,16.127883 241.847325,16.8868493 C241.069939,17.6205168 239.944071,18 238.469719,18 L234.555985,18 L234.555985,0.948555855 L238.469719,0.948555855 C239.944071,0.923256976 241.096746,1.30274015 241.847325,2.03640763 Z M237.290237,3.32665044 L237.290237,15.6219054 L238.362493,15.6219054 C239.005847,15.6219054 239.488362,15.4448133 239.810039,15.1159278 C240.131715,14.7870424 240.265747,14.255766 240.265747,13.5220985 L240.265747,5.42645736 C240.265747,4.71808876 240.104909,4.18681231 239.810039,3.83262801 C239.488362,3.50374259 239.005847,3.32665044 238.362493,3.32665044 L237.290237,3.32665044 L237.290237,3.32665044 Z" id="Shape"></path>
                </g>
                <g id="Group" fill="#F5A503">
                    <g transform="translate(42.258883, 43.197970)" id="Path">
                        <path d="M31.7101366,34.0655373 L31.7101366,34.0655373 L45.8462897,20.0265612 C47.000785,18.8800024 48.4888011,18.3194625 50.0281281,18.3194625 C51.5674551,18.3194625 53.0298158,18.9054814 54.2099665,20.0265612 L69.3210267,35.0337426 L69.3210267,35.0337426 L97.5420221,63.0607366 C98.7991391,58.6783339 99.5174918,54.0666194 99.5174918,49.3020305 C99.5174918,22.0903671 77.2742163,0 49.8741954,0 C22.4741745,0 0.230899053,22.0903671 0.230899053,49.3020305 C0.230899053,54.1940149 0.949251662,58.8821666 2.25767963,63.3410066 L31.7101366,34.0655373 Z"></path>
                        <path d="M50.0281281,54.1430567 L17.3943953,86.5524535 C26.091593,94.0178255 37.431302,98.5276237 49.84854,98.5276237 C62.3427443,98.5276237 73.7594196,93.9413883 82.4566173,86.3740999 L50.0281281,54.1430567 Z"></path>
                    </g>
                    <path d="M172.560874,138.754537 C180.469701,125.145132 185,109.33571 185,92.4518617 C185,41.3910106 143.613033,0 92.5,0 C41.3869673,0 0,41.3910106 0,92.4518617 C0,109.412455 4.58148866,125.324203 12.5671002,138.984772 L27.5145268,124.045124 C22.8562535,114.503191 20.2455728,103.784505 20.2455728,92.4262801 C20.2455728,52.5190017 52.5975374,20.2094551 92.5,20.2094551 C132.402463,20.2094551 164.754427,52.5445833 164.754427,92.4262801 C164.754427,103.656598 162.169341,114.298538 157.587853,123.789308 L172.458495,138.652211 L172.560874,138.754537 Z" id="Path"></path>
                    <path d="M155.888325,160.022888 C139.348942,175.520579 117.202555,185 92.8543307,185 C68.6085174,185 46.5389386,175.572238 30.0507614,160.177864 L44.362704,145.739182 C57.1896866,157.465768 74.189919,164.594706 92.8799335,164.594706 C111.646756,164.594706 128.723797,157.38828 141.576382,145.558376 L155.862722,159.971229 L155.888325,160.022888 Z" id="Path"></path>
                </g>
            </g>
        </g>
    </g>
</svg>