<?xml version="1.0" encoding="UTF-8"?>
<svg width="559px" height="519px" viewBox="0 0 559 519" version="1.1" xmlns="http://www.w3.org/2000/svg" xmlns:xlink="http://www.w3.org/1999/xlink">
    <title>Group 10 Copy</title>
    <defs>
        <polygon id="path-1" points="144.5 0 269.640671 72 269.640671 216 144.5 288 19.3593292 216 19.3593292 72"/>
        <polygon id="path-2" points="414.5 0 539.640671 72 539.640671 216 414.5 288 289.359329 216 289.359329 72"/>
        <polygon id="path-3" points="280.5 231 405.640671 303 405.640671 447 280.5 519 155.359329 447 155.359329 303"/>
        <path d="M110.65267,49.3928916 C110.47714,47.8466326 108.657828,46.6846873 107.084671,46.6846873 C101.998444,46.6846873 97.4850633,43.7251852 95.5922354,39.1482094 C93.6585193,34.4603188 94.9053986,28.9931595 98.6960106,25.547433 C99.8891985,24.4665251 100.034165,22.6570992 99.0334404,21.400201 C96.430234,18.1243256 93.4714255,15.1652328 90.2408559,12.6006857 C88.9758042,11.594676 87.1197342,11.7346497 86.0227778,12.9383415 C82.7145622,16.5690624 76.7721645,17.9184579 72.1803117,16.019809 C67.4017781,14.0278443 64.3884522,9.22944811 64.6833418,4.07866207 C64.7803993,2.4607791 63.5872114,1.05408449 61.9595363,0.86622507 C57.8137351,0.391051244 53.6315889,0.376317172 49.4733973,0.833482687 C47.8643077,1.00947299 46.6711198,2.38301594 46.7252242,3.98043492 C46.9061229,9.08047027 43.856452,13.7949641 39.1254146,15.7153048 C34.5884923,17.5517432 28.6878086,16.2138076 25.3862012,12.6154197 C24.295027,11.4301455 22.4691068,11.2844419 21.1978599,12.2663041 C17.8714718,14.852543 14.8461686,17.8140915 12.2190076,21.0629544 C11.1943281,22.3259918 11.345077,24.1567003 12.5502422,25.2433381 C16.4131311,28.7099378 17.6604234,34.2245736 15.6536045,38.9664892 C13.7376479,43.4873936 9.00041535,46.4010564 3.57717206,46.4010564 C1.81733353,46.3449851 0.563846105,47.5155252 0.371383127,49.1010751 C-0.116795502,53.2331638 -0.122577651,57.4434249 0.347428507,61.6090745 C0.521719016,63.161882 2.39637451,64.3135953 3.98687865,64.3135953 C8.81992968,64.1912206 13.4601047,67.1564526 15.4066241,71.8504824 C17.3469483,76.5383731 16.099656,82.0022581 12.3032618,85.4508496 C11.1158561,86.5317575 10.9651072,88.3383184 11.9658321,89.5952166 C14.5446708,92.8502187 17.5038923,95.8121765 20.7460262,98.3980062 C22.0176861,99.4134293 23.867974,99.2701814 24.9702995,98.0664895 C28.2909054,94.4267644 34.2328901,93.0798247 38.8065704,94.9821571 C43.5970813,96.9679826 46.6104073,101.765969 46.3155176,106.91962 C46.2192861,108.538322 47.4182562,109.947472 49.0393231,110.132467 C51.160133,110.377625 53.2937462,110.5 55.4331415,110.5 C57.463915,110.5 59.4951016,110.389494 61.5258751,110.165618 C63.1353777,109.989628 64.3277396,108.616085 64.2736352,107.015801 C64.0873674,101.918631 67.1424074,97.204137 71.8672496,95.2870705 C76.4347348,93.4383538 82.3106378,94.7914327 85.6126582,98.386137 C86.7100276,99.5689556 88.5231445,99.7117943 89.8014126,98.7332063 C93.1216054,96.1531066 96.1407135,93.1940137 98.7802648,89.9361467 C99.8045313,88.6759742 99.6599776,86.8424008 98.4486172,85.7561723 C94.5857283,82.2895725 93.3322409,76.7741182 95.3390598,72.0354769 C97.2256926,67.5747366 101.786983,64.5796271 106.693137,64.5796271 L107.37956,64.5972262 C108.97089,64.7253307 110.435013,63.5105883 110.627889,61.900891 C111.116894,57.7651188 111.122676,53.5585412 110.65267,49.3928916 Z" id="path-4"/>
        <filter x="-29.3%" y="-25.0%" width="158.6%" height="159.1%" filterUnits="objectBoundingBox" id="filter-5">
            <feOffset dx="0" dy="5" in="SourceAlpha" result="shadowOffsetOuter1"/>
            <feGaussianBlur stdDeviation="10" in="shadowOffsetOuter1" result="shadowBlurOuter1"/>
            <feColorMatrix values="0 0 0 0 0   0 0 0 0 0   0 0 0 0 0  0 0 0 0.140788899 0" type="matrix" in="shadowBlurOuter1"/>
        </filter>
    </defs>
    <g id="Page-1" stroke="none" stroke-width="1" fill="none" fill-rule="evenodd">
        <g id="Group-10-Copy">
            <g id="Polygon" stroke-linejoin="square">
                <path stroke="#FFFFFF" stroke-width="10" d="M144.5,5.7685148 L24.3593292,74.8917522 L24.3593292,213.108248 L144.5,282.231485 L264.640671,213.108248 L264.640671,74.8917522 L144.5,5.7685148 Z" fill="#9E6DAF" fill-rule="evenodd"/>
                <path stroke="#9E6DAF" stroke-width="1" d="M144.5,0.57685148 L19.8593292,72.2891752 L19.8593292,215.710825 L144.5,287.423149 L269.140671,215.710825 L269.140671,72.2891752 L144.5,0.57685148 Z"/>
            </g>
            <g id="Polygon-Copy-2" stroke-linejoin="square">
                <path stroke="#FFFFFF" stroke-width="10" d="M414.5,5.7685148 L294.359329,74.8917522 L294.359329,213.108248 L414.5,282.231485 L534.640671,213.108248 L534.640671,74.8917522 L414.5,5.7685148 Z" fill="#F7A457" fill-rule="evenodd"/>
                <path stroke="#F7A457" stroke-width="1" d="M414.5,0.57685148 L289.859329,72.2891752 L289.859329,215.710825 L414.5,287.423149 L539.140671,215.710825 L539.140671,72.2891752 L414.5,0.57685148 Z"/>
            </g>
            <g id="Polygon-Copy-6" stroke-linejoin="square">
                <path stroke="#FFFFFF" stroke-width="10" d="M280.5,236.768515 L160.359329,305.891752 L160.359329,444.108248 L280.5,513.231485 L400.640671,444.108248 L400.640671,305.891752 L280.5,236.768515 Z" fill="#4EBD8E" fill-rule="evenodd"/>
                <path stroke="#4EBD8E" stroke-width="1" d="M280.5,231.576851 L155.859329,303.289175 L155.859329,446.710825 L280.5,518.423149 L405.140671,446.710825 L405.140671,303.289175 L280.5,231.576851 Z"/>
            </g>
            <path d="M358.063333,177 L359.013333,174.302 L364.390333,174.302 L365.321333,177 L368.152333,177 L363.231333,163.738 L360.172333,163.738 L355.232333,177 L358.063333,177 Z M363.668333,172.269 L359.716333,172.269 L361.692333,166.607 L363.668333,172.269 Z M373.067,182.016 L373.067,174.796 C373.333,175.505333 373.7795,176.072167 374.4065,176.4965 C375.0335,176.920833 375.790333,177.133 376.677,177.133 C377.563667,177.133 378.361667,176.917667 379.071,176.487 C379.780333,176.056333 380.3345,175.4325 380.7335,174.6155 C381.1325,173.7985 381.332,172.839 381.332,171.737 C381.332,170.635 381.1325,169.6755 380.7335,168.8585 C380.3345,168.0415 379.780333,167.417667 379.071,166.987 C378.361667,166.556333 377.563667,166.341 376.677,166.341 C375.790333,166.341 375.0335,166.55 374.4065,166.968 C373.7795,167.386 373.333,167.949667 373.067,168.659 L373.067,168.659 L373.067,166.474 L370.388,166.474 L370.388,182.016 L373.067,182.016 Z M375.841,174.777 C375.030333,174.777 374.362167,174.5015 373.8365,173.9505 C373.310833,173.3995 373.048,172.661667 373.048,171.737 C373.048,170.799667 373.310833,170.0555 373.8365,169.5045 C374.362167,168.9535 375.030333,168.678 375.841,168.678 C376.677,168.678 377.348333,168.950333 377.855,169.495 C378.361667,170.039667 378.615,170.787 378.615,171.737 C378.615,172.687 378.361667,173.431167 377.855,173.9695 C377.348333,174.507833 376.677,174.777 375.841,174.777 Z M386.702667,182.016 L386.702667,174.796 C386.968667,175.505333 387.415167,176.072167 388.042167,176.4965 C388.669167,176.920833 389.426,177.133 390.312667,177.133 C391.199333,177.133 391.997333,176.917667 392.706667,176.487 C393.416,176.056333 393.970167,175.4325 394.369167,174.6155 C394.768167,173.7985 394.967667,172.839 394.967667,171.737 C394.967667,170.635 394.768167,169.6755 394.369167,168.8585 C393.970167,168.0415 393.416,167.417667 392.706667,166.987 C391.997333,166.556333 391.199333,166.341 390.312667,166.341 C389.426,166.341 388.669167,166.55 388.042167,166.968 C387.415167,167.386 386.968667,167.949667 386.702667,168.659 L386.702667,168.659 L386.702667,166.474 L384.023667,166.474 L384.023667,182.016 L386.702667,182.016 Z M389.476667,174.777 C388.666,174.777 387.997833,174.5015 387.472167,173.9505 C386.9465,173.3995 386.683667,172.661667 386.683667,171.737 C386.683667,170.799667 386.9465,170.0555 387.472167,169.5045 C387.997833,168.9535 388.666,168.678 389.476667,168.678 C390.312667,168.678 390.984,168.950333 391.490667,169.495 C391.997333,170.039667 392.250667,170.787 392.250667,171.737 C392.250667,172.687 391.997333,173.431167 391.490667,173.9695 C390.984,174.507833 390.312667,174.777 389.476667,174.777 Z M400.338333,177 L400.338333,162.94 L397.659333,162.94 L397.659333,177 L400.338333,177 Z M404.911,164.897 C405.405,164.897 405.804,164.760833 406.108,164.4885 C406.412,164.216167 406.564,163.871 406.564,163.453 C406.564,163.022333 406.412,162.670833 406.108,162.3985 C405.804,162.126167 405.405,161.99 404.911,161.99 C404.417,161.99 404.018,162.126167 403.714,162.3985 C403.41,162.670833 403.258,163.022333 403.258,163.453 C403.258,163.871 403.41,164.216167 403.714,164.4885 C404.018,164.760833 404.417,164.897 404.911,164.897 Z M406.241,177 L406.241,166.474 L403.562,166.474 L403.562,177 L406.241,177 Z M414.195667,177.133 C415.551,177.133 416.6815,176.765667 417.587167,176.031 C418.492833,175.296333 419.059667,174.295667 419.287667,173.029 L419.287667,173.029 L416.456667,173.029 C416.342667,173.586333 416.083,174.0265 415.677667,174.3495 C415.272333,174.6725 414.759333,174.834 414.138667,174.834 C413.429333,174.834 412.837167,174.571167 412.362167,174.0455 C411.887167,173.519833 411.649667,172.750333 411.649667,171.737 C411.649667,170.723667 411.887167,169.954167 412.362167,169.4285 C412.837167,168.902833 413.429333,168.64 414.138667,168.64 C414.759333,168.64 415.272333,168.8015 415.677667,169.1245 C416.083,169.4475 416.342667,169.887667 416.456667,170.445 L416.456667,170.445 L419.287667,170.445 C419.059667,169.178333 418.492833,168.177667 417.587167,167.443 C416.6815,166.708333 415.551,166.341 414.195667,166.341 C413.169667,166.341 412.257667,166.556333 411.459667,166.987 C410.661667,167.417667 410.041,168.0415 409.597667,168.8585 C409.154333,169.6755 408.932667,170.635 408.932667,171.737 C408.932667,172.839 409.154333,173.795333 409.597667,174.606 C410.041,175.416667 410.661667,176.0405 411.459667,176.4775 C412.257667,176.9145 413.169667,177.133 414.195667,177.133 Z M426.102333,177.133 C426.989,177.133 427.749,176.920833 428.382333,176.4965 C429.015667,176.072167 429.465333,175.505333 429.731333,174.796 L429.731333,174.796 L429.731333,177 L432.391333,177 L432.391333,166.474 L429.731333,166.474 L429.731333,168.659 C429.465333,167.949667 429.015667,167.386 428.382333,166.968 C427.749,166.55 426.989,166.341 426.102333,166.341 C425.215667,166.341 424.417667,166.556333 423.708333,166.987 C422.999,167.417667 422.444833,168.0415 422.045833,168.8585 C421.646833,169.6755 421.447333,170.635 421.447333,171.737 C421.447333,172.839 421.646833,173.7985 422.045833,174.6155 C422.444833,175.4325 422.999,176.056333 423.708333,176.487 C424.417667,176.917667 425.215667,177.133 426.102333,177.133 Z M426.938333,174.777 C426.102333,174.777 425.431,174.507833 424.924333,173.9695 C424.417667,173.431167 424.164333,172.687 424.164333,171.737 C424.164333,170.787 424.417667,170.039667 424.924333,169.495 C425.431,168.950333 426.102333,168.678 426.938333,168.678 C427.749,168.678 428.417167,168.9535 428.942833,169.5045 C429.4685,170.0555 429.731333,170.799667 429.731333,171.737 C429.731333,172.661667 429.4685,173.3995 428.942833,173.9505 C428.417167,174.5015 427.749,174.777 426.938333,174.777 Z M441.239,177 L441.239,174.701 L440.194,174.701 C439.712667,174.701 439.370667,174.599667 439.168,174.397 C438.965333,174.194333 438.864,173.839667 438.864,173.333 L438.864,173.333 L438.864,168.735 L441.22,168.735 L441.22,166.474 L438.864,166.474 L438.864,163.871 L436.185,163.871 L436.185,166.474 L434.722,166.474 L434.722,168.735 L436.185,168.735 L436.185,173.295 C436.185,174.625 436.4985,175.575 437.1255,176.145 C437.7525,176.715 438.655,177 439.833,177 L439.833,177 L441.239,177 Z M445.298667,164.897 C445.792667,164.897 446.191667,164.760833 446.495667,164.4885 C446.799667,164.216167 446.951667,163.871 446.951667,163.453 C446.951667,163.022333 446.799667,162.670833 446.495667,162.3985 C446.191667,162.126167 445.792667,161.99 445.298667,161.99 C444.804667,161.99 444.405667,162.126167 444.101667,162.3985 C443.797667,162.670833 443.645667,163.022333 443.645667,163.453 C443.645667,163.871 443.797667,164.216167 444.101667,164.4885 C444.405667,164.760833 444.804667,164.897 445.298667,164.897 Z M446.628667,177 L446.628667,166.474 L443.949667,166.474 L443.949667,177 L446.628667,177 Z M454.716333,177.133 C455.742333,177.133 456.663833,176.9145 457.480833,176.4775 C458.297833,176.0405 458.940667,175.416667 459.409333,174.606 C459.878,173.795333 460.112333,172.839 460.112333,171.737 C460.112333,170.635 459.878,169.6755 459.409333,168.8585 C458.940667,168.0415 458.297833,167.417667 457.480833,166.987 C456.663833,166.556333 455.742333,166.341 454.716333,166.341 C453.690333,166.341 452.768833,166.556333 451.951833,166.987 C451.134833,167.417667 450.492,168.0415 450.023333,168.8585 C449.554667,169.6755 449.320333,170.635 449.320333,171.737 C449.320333,172.839 449.554667,173.795333 450.023333,174.606 C450.492,175.416667 451.134833,176.0405 451.951833,176.4775 C452.768833,176.9145 453.690333,177.133 454.716333,177.133 Z M454.716333,174.815 C453.969,174.815 453.335667,174.552167 452.816333,174.0265 C452.297,173.500833 452.037333,172.737667 452.037333,171.737 C452.037333,170.736333 452.297,169.973167 452.816333,169.4475 C453.335667,168.921833 453.969,168.659 454.716333,168.659 C455.463667,168.659 456.097,168.921833 456.616333,169.4475 C457.135667,169.973167 457.395333,170.736333 457.395333,171.737 C457.395333,172.737667 457.135667,173.500833 456.616333,174.0265 C456.097,174.552167 455.463667,174.815 454.716333,174.815 Z M465.483,177 L465.483,171.414 C465.483,170.489333 465.711,169.78 466.167,169.286 C466.623,168.792 467.231,168.545 467.991,168.545 C468.738333,168.545 469.327333,168.776167 469.758,169.2385 C470.188667,169.700833 470.404,170.35 470.404,171.186 L470.404,171.186 L470.404,177 L473.064,177 L473.064,170.882 C473.064,169.438 472.703,168.317 471.981,167.519 C471.259,166.721 470.29,166.322 469.074,166.322 C468.238,166.322 467.500167,166.5215 466.8605,166.9205 C466.220833,167.3195 465.761667,167.873667 465.483,168.583 L465.483,168.583 L465.483,166.474 L462.804,166.474 L462.804,177 L465.483,177 Z M346.866,201 L346.866,191.785 L350.267,201 L352.585,201 L355.986,191.747 L355.986,201 L358.646,201 L358.646,187.738 L355.416,187.738 L351.464,197.713 L347.436,187.738 L344.187,187.738 L344.187,201 L346.866,201 Z M365.992667,201.133 C366.879333,201.133 367.639333,200.920833 368.272667,200.4965 C368.906,200.072167 369.355667,199.505333 369.621667,198.796 L369.621667,198.796 L369.621667,201 L372.281667,201 L372.281667,190.474 L369.621667,190.474 L369.621667,192.659 C369.355667,191.949667 368.906,191.386 368.272667,190.968 C367.639333,190.55 366.879333,190.341 365.992667,190.341 C365.106,190.341 364.308,190.556333 363.598667,190.987 C362.889333,191.417667 362.335167,192.0415 361.936167,192.8585 C361.537167,193.6755 361.337667,194.635 361.337667,195.737 C361.337667,196.839 361.537167,197.7985 361.936167,198.6155 C362.335167,199.4325 362.889333,200.056333 363.598667,200.487 C364.308,200.917667 365.106,201.133 365.992667,201.133 Z M366.828667,198.777 C365.992667,198.777 365.321333,198.507833 364.814667,197.9695 C364.308,197.431167 364.054667,196.687 364.054667,195.737 C364.054667,194.787 364.308,194.039667 364.814667,193.495 C365.321333,192.950333 365.992667,192.678 366.828667,192.678 C367.639333,192.678 368.3075,192.9535 368.833167,193.5045 C369.358833,194.0555 369.621667,194.799667 369.621667,195.737 C369.621667,196.661667 369.358833,197.3995 368.833167,197.9505 C368.3075,198.5015 367.639333,198.777 366.828667,198.777 Z M376.854333,188.897 C377.348333,188.897 377.747333,188.760833 378.051333,188.4885 C378.355333,188.216167 378.507333,187.871 378.507333,187.453 C378.507333,187.022333 378.355333,186.670833 378.051333,186.3985 C377.747333,186.126167 377.348333,185.99 376.854333,185.99 C376.360333,185.99 375.961333,186.126167 375.657333,186.3985 C375.353333,186.670833 375.201333,187.022333 375.201333,187.453 C375.201333,187.871 375.353333,188.216167 375.657333,188.4885 C375.961333,188.760833 376.360333,188.897 376.854333,188.897 Z M378.184333,201 L378.184333,190.474 L375.505333,190.474 L375.505333,201 L378.184333,201 Z M384.087,201 L384.087,195.414 C384.087,194.489333 384.315,193.78 384.771,193.286 C385.227,192.792 385.835,192.545 386.595,192.545 C387.342333,192.545 387.931333,192.776167 388.362,193.2385 C388.792667,193.700833 389.008,194.35 389.008,195.186 L389.008,195.186 L389.008,201 L391.668,201 L391.668,194.882 C391.668,193.438 391.307,192.317 390.585,191.519 C389.863,190.721 388.894,190.322 387.678,190.322 C386.842,190.322 386.104167,190.5215 385.4645,190.9205 C384.824833,191.3195 384.365667,191.873667 384.087,192.583 L384.087,192.583 L384.087,190.474 L381.408,190.474 L381.408,201 L384.087,201 Z M400.439667,201 L400.439667,198.701 L399.394667,198.701 C398.913333,198.701 398.571333,198.599667 398.368667,198.397 C398.166,198.194333 398.064667,197.839667 398.064667,197.333 L398.064667,197.333 L398.064667,192.735 L400.420667,192.735 L400.420667,190.474 L398.064667,190.474 L398.064667,187.871 L395.385667,187.871 L395.385667,190.474 L393.922667,190.474 L393.922667,192.735 L395.385667,192.735 L395.385667,197.295 C395.385667,198.625 395.699167,199.575 396.326167,200.145 C396.953167,200.715 397.855667,201 399.033667,201 L399.033667,201 L400.439667,201 Z M407.273333,201.133 C408.16,201.133 408.92,200.920833 409.553333,200.4965 C410.186667,200.072167 410.636333,199.505333 410.902333,198.796 L410.902333,198.796 L410.902333,201 L413.562333,201 L413.562333,190.474 L410.902333,190.474 L410.902333,192.659 C410.636333,191.949667 410.186667,191.386 409.553333,190.968 C408.92,190.55 408.16,190.341 407.273333,190.341 C406.386667,190.341 405.588667,190.556333 404.879333,190.987 C404.17,191.417667 403.615833,192.0415 403.216833,192.8585 C402.817833,193.6755 402.618333,194.635 402.618333,195.737 C402.618333,196.839 402.817833,197.7985 403.216833,198.6155 C403.615833,199.4325 404.17,200.056333 404.879333,200.487 C405.588667,200.917667 406.386667,201.133 407.273333,201.133 Z M408.109333,198.777 C407.273333,198.777 406.602,198.507833 406.095333,197.9695 C405.588667,197.431167 405.335333,196.687 405.335333,195.737 C405.335333,194.787 405.588667,194.039667 406.095333,193.495 C406.602,192.950333 407.273333,192.678 408.109333,192.678 C408.92,192.678 409.588167,192.9535 410.113833,193.5045 C410.6395,194.0555 410.902333,194.799667 410.902333,195.737 C410.902333,196.661667 410.6395,197.3995 410.113833,197.9505 C409.588167,198.5015 408.92,198.777 408.109333,198.777 Z M418.135,188.897 C418.629,188.897 419.028,188.760833 419.332,188.4885 C419.636,188.216167 419.788,187.871 419.788,187.453 C419.788,187.022333 419.636,186.670833 419.332,186.3985 C419.028,186.126167 418.629,185.99 418.135,185.99 C417.641,185.99 417.242,186.126167 416.938,186.3985 C416.634,186.670833 416.482,187.022333 416.482,187.453 C416.482,187.871 416.634,188.216167 416.938,188.4885 C417.242,188.760833 417.641,188.897 418.135,188.897 Z M419.465,201 L419.465,190.474 L416.786,190.474 L416.786,201 L419.465,201 Z M425.367667,201 L425.367667,195.414 C425.367667,194.489333 425.595667,193.78 426.051667,193.286 C426.507667,192.792 427.115667,192.545 427.875667,192.545 C428.623,192.545 429.212,192.776167 429.642667,193.2385 C430.073333,193.700833 430.288667,194.35 430.288667,195.186 L430.288667,195.186 L430.288667,201 L432.948667,201 L432.948667,194.882 C432.948667,193.438 432.587667,192.317 431.865667,191.519 C431.143667,190.721 430.174667,190.322 428.958667,190.322 C428.122667,190.322 427.384833,190.5215 426.745167,190.9205 C426.1055,191.3195 425.646333,191.873667 425.367667,192.583 L425.367667,192.583 L425.367667,190.474 L422.688667,190.474 L422.688667,201 L425.367667,201 Z M440.219333,201.133 C441.106,201.133 441.866,200.920833 442.499333,200.4965 C443.132667,200.072167 443.582333,199.505333 443.848333,198.796 L443.848333,198.796 L443.848333,201 L446.508333,201 L446.508333,190.474 L443.848333,190.474 L443.848333,192.659 C443.582333,191.949667 443.132667,191.386 442.499333,190.968 C441.866,190.55 441.106,190.341 440.219333,190.341 C439.332667,190.341 438.534667,190.556333 437.825333,190.987 C437.116,191.417667 436.561833,192.0415 436.162833,192.8585 C435.763833,193.6755 435.564333,194.635 435.564333,195.737 C435.564333,196.839 435.763833,197.7985 436.162833,198.6155 C436.561833,199.4325 437.116,200.056333 437.825333,200.487 C438.534667,200.917667 439.332667,201.133 440.219333,201.133 Z M441.055333,198.777 C440.219333,198.777 439.548,198.507833 439.041333,197.9695 C438.534667,197.431167 438.281333,196.687 438.281333,195.737 C438.281333,194.787 438.534667,194.039667 439.041333,193.495 C439.548,192.950333 440.219333,192.678 441.055333,192.678 C441.866,192.678 442.534167,192.9535 443.059833,193.5045 C443.5855,194.0555 443.848333,194.799667 443.848333,195.737 C443.848333,196.661667 443.5855,197.3995 443.059833,197.9505 C442.534167,198.5015 441.866,198.777 441.055333,198.777 Z M452.411,201 L452.411,195.414 C452.411,194.489333 452.639,193.78 453.095,193.286 C453.551,192.792 454.159,192.545 454.919,192.545 C455.666333,192.545 456.255333,192.776167 456.686,193.2385 C457.116667,193.700833 457.332,194.35 457.332,195.186 L457.332,195.186 L457.332,201 L459.992,201 L459.992,194.882 C459.992,193.438 459.631,192.317 458.909,191.519 C458.187,190.721 457.218,190.322 456.002,190.322 C455.166,190.322 454.428167,190.5215 453.7885,190.9205 C453.148833,191.3195 452.689667,191.873667 452.411,192.583 L452.411,192.583 L452.411,190.474 L449.732,190.474 L449.732,201 L452.411,201 Z M467.870667,201.133 C469.226,201.133 470.3565,200.765667 471.262167,200.031 C472.167833,199.296333 472.734667,198.295667 472.962667,197.029 L472.962667,197.029 L470.131667,197.029 C470.017667,197.586333 469.758,198.0265 469.352667,198.3495 C468.947333,198.6725 468.434333,198.834 467.813667,198.834 C467.104333,198.834 466.512167,198.571167 466.037167,198.0455 C465.562167,197.519833 465.324667,196.750333 465.324667,195.737 C465.324667,194.723667 465.562167,193.954167 466.037167,193.4285 C466.512167,192.902833 467.104333,192.64 467.813667,192.64 C468.434333,192.64 468.947333,192.8015 469.352667,193.1245 C469.758,193.4475 470.017667,193.887667 470.131667,194.445 L470.131667,194.445 L472.962667,194.445 C472.734667,193.178333 472.167833,192.177667 471.262167,191.443 C470.3565,190.708333 469.226,190.341 467.870667,190.341 C466.844667,190.341 465.932667,190.556333 465.134667,190.987 C464.336667,191.417667 463.716,192.0415 463.272667,192.8585 C462.829333,193.6755 462.607667,194.635 462.607667,195.737 C462.607667,196.839 462.829333,197.795333 463.272667,198.606 C463.716,199.416667 464.336667,200.0405 465.134667,200.4775 C465.932667,200.9145 466.844667,201.133 467.870667,201.133 Z M480.385333,201.133 C481.259333,201.133 482.054167,200.968333 482.769833,200.639 C483.4855,200.309667 484.071333,199.853667 484.527333,199.271 C484.983333,198.688333 485.281,198.029667 485.420333,197.295 L485.420333,197.295 L482.589333,197.295 C482.475333,197.814333 482.2125,198.226 481.800833,198.53 C481.389167,198.834 480.873,198.986 480.252333,198.986 C479.555667,198.986 478.973,198.764333 478.504333,198.321 C478.035667,197.877667 477.782333,197.187333 477.744333,196.25 L477.744333,196.25 L485.458333,196.25 C485.521667,195.908 485.553333,195.604 485.553333,195.338 C485.553333,194.375333 485.341167,193.517167 484.916833,192.7635 C484.4925,192.009833 483.890833,191.417667 483.111833,190.987 C482.332833,190.556333 481.424,190.341 480.385333,190.341 C479.359333,190.341 478.447333,190.556333 477.649333,190.987 C476.851333,191.417667 476.230667,192.0415 475.787333,192.8585 C475.344,193.6755 475.122333,194.635 475.122333,195.737 C475.122333,196.839 475.344,197.795333 475.787333,198.606 C476.230667,199.416667 476.851333,200.0405 477.649333,200.4775 C478.447333,200.9145 479.359333,201.133 480.385333,201.133 Z M482.855333,195.072 L477.744333,195.072 C477.795,194.210667 478.067333,193.558333 478.561333,193.115 C479.055333,192.671667 479.663333,192.45 480.385333,192.45 C481.094667,192.45 481.693167,192.671667 482.180833,193.115 C482.6685,193.558333 482.893333,194.210667 482.855333,195.072 L482.855333,195.072 Z" id="ApplicationMaintainance" fill="#FFFFFF" fill-rule="nonzero"/>
            <g id="custom" transform="translate(112.000000, 81.000000)" fill="#FFFFFF" fill-rule="nonzero">
                <path d="M272.664179,55.988806 L274.996269,55.988806 L274.996269,53.6567164 L272.664179,53.6567164 C271.375991,53.6567164 270.33209,52.6128149 270.33209,51.3246269 L270.33209,4.68283582 C270.33209,3.39464784 271.375991,2.35074627 272.664179,2.35074627 L323.970149,2.35074627 C325.258337,2.35074627 326.302239,3.39464784 326.302239,4.68283582 L326.302239,7.01492537 L328.634328,7.01492537 L328.634328,4.68283582 C328.634328,2.10704291 326.545942,0.0186567164 323.970149,0.0186567164 L272.664179,0.0186567164 C270.088386,0.0186567164 268,2.10704291 268,4.68283582 L268,51.3246269 C268,53.9004198 270.088386,55.988806 272.664179,55.988806 Z" id="Path"/>
                <polygon id="Path" points="272.664179 4.68283582 274.996269 4.68283582 274.996269 7.01492537 272.664179 7.01492537"/>
                <polygon id="Path" points="277.328358 4.68283582 279.660448 4.68283582 279.660448 7.01492537 277.328358 7.01492537"/>
                <polygon id="Path" points="281.992537 4.68283582 284.324627 4.68283582 284.324627 7.01492537 281.992537 7.01492537"/>
                <path d="M277.328358,60.6529851 C277.328358,63.228778 279.416744,65.3171642 281.992537,65.3171642 L333.298507,65.3171642 C335.8743,65.3171642 337.962687,63.228778 337.962687,60.6529851 L337.962687,14.011194 C337.962687,11.4354011 335.8743,9.34701493 333.298507,9.34701493 L281.992537,9.34701493 C279.416744,9.34701493 277.328358,11.4354011 277.328358,14.011194 L277.328358,60.6529851 Z M279.660448,14.011194 C279.660448,12.723006 280.704349,11.6791045 281.992537,11.6791045 L333.298507,11.6791045 C334.586695,11.6791045 335.630597,12.723006 335.630597,14.011194 L335.630597,60.6529851 C335.630597,61.9411731 334.586695,62.9850746 333.298507,62.9850746 L281.992537,62.9850746 C280.704349,62.9850746 279.660448,61.9411731 279.660448,60.6529851 L279.660448,14.011194 Z" id="Shape"/>
                <polygon id="Path" points="281.992537 14.011194 284.324627 14.011194 284.324627 16.3432836 281.992537 16.3432836"/>
                <polygon id="Path" points="286.656716 14.011194 288.988806 14.011194 288.988806 16.3432836 286.656716 16.3432836"/>
                <polygon id="Path" points="291.320896 14.011194 293.652985 14.011194 293.652985 16.3432836 291.320896 16.3432836"/>
                <polygon id="Path" points="281.992537 18.6753731 333.298507 18.6753731 333.298507 21.0074627 281.992537 21.0074627"/>
                <polygon id="Path" points="281.992537 24.505597 291.320896 24.505597 291.320896 26.8376866 281.992537 26.8376866"/>
                <polygon id="Path" points="281.992537 29.1697761 288.988806 29.1697761 288.988806 31.5018657 281.992537 31.5018657"/>
                <path d="M307.645522,33.8339552 C303.137302,33.8339552 299.483209,37.4880481 299.483209,41.9962687 C299.483209,46.5044893 303.137302,50.1585821 307.645522,50.1585821 C312.153743,50.1585821 315.807836,46.5044893 315.807836,41.9962687 C315.802589,37.4906716 312.151119,33.8392024 307.645522,33.8339552 Z M307.645522,47.8264925 C304.425781,47.8264925 301.815299,45.2160098 301.815299,41.9962687 C301.815299,38.7765275 304.425781,36.1660448 307.645522,36.1660448 C310.865264,36.1660448 313.475746,38.7765275 313.475746,41.9962687 C313.471665,45.2145522 310.863806,47.8224113 307.645522,47.8264925 Z" id="Shape"/>
                <path d="M326.302239,38.4981343 C326.302239,37.8538946 325.780434,37.3320896 325.136194,37.3320896 L322.054338,37.3320896 C321.807428,36.5659981 321.499592,35.820604 321.131996,35.104944 L323.311334,32.9270639 C323.766091,32.4714319 323.766091,31.7336171 323.311334,31.2779851 L318.363806,26.3304571 C317.908174,25.8756996 317.170359,25.8756996 316.714727,26.3304571 L314.536847,28.5086287 C313.820021,28.1424907 313.07521,27.8346549 312.309701,27.5874534 L312.309701,24.505597 C312.309701,23.8613573 311.787896,23.3395522 311.143657,23.3395522 L304.147388,23.3395522 C303.503148,23.3395522 302.981343,23.8613573 302.981343,24.505597 L302.981343,27.5874534 C302.215835,27.8346549 301.471024,28.1424907 300.754198,28.5086287 L298.576318,26.3304571 C298.120686,25.8756996 297.382871,25.8756996 296.927239,26.3304571 L291.979711,31.2779851 C291.524953,31.7336171 291.524953,32.4714319 291.979711,32.9270639 L294.157882,35.104944 C294.060518,35.2958839 293.966651,35.4874067 293.878032,35.6809701 C293.631996,36.2185168 293.418027,36.769473 293.236707,37.3320896 L290.154851,37.3320896 C289.510611,37.3320896 288.988806,37.8538946 288.988806,38.4981343 L288.988806,45.494403 C288.988806,46.1386427 289.510611,46.6604478 290.154851,46.6604478 L293.236707,46.6604478 C293.483617,47.4265392 293.791453,48.1719333 294.159049,48.8875933 L291.979711,51.0654734 C291.524953,51.5211054 291.524953,52.2589202 291.979711,52.7145522 L296.927239,57.6620802 C297.382871,58.1168377 298.120686,58.1168377 298.576318,57.6620802 L300.754198,55.4839086 C301.471024,55.8500466 302.215835,56.1578825 302.981343,56.405084 L302.981343,59.4869403 C302.981343,60.13118 303.503148,60.6529851 304.147388,60.6529851 L311.143657,60.6529851 C311.787896,60.6529851 312.309701,60.13118 312.309701,59.4869403 L312.309701,56.405084 C313.07521,56.1578825 313.820021,55.8500466 314.536847,55.4839086 L316.714727,57.6620802 C317.170359,58.1168377 317.908174,58.1168377 318.363806,57.6620802 L323.311334,52.7145522 C323.766091,52.2589202 323.766091,51.5211054 323.311334,51.0654734 L321.131996,48.8875933 C321.499592,48.1719333 321.807428,47.4265392 322.054338,46.6604478 L325.136194,46.6604478 C325.780434,46.6604478 326.302239,46.1386427 326.302239,45.494403 L326.302239,38.4981343 Z M323.970149,44.3283582 L321.178638,44.3283582 C320.646922,44.3283582 320.182836,44.6883746 320.049907,45.2028918 C319.751982,46.3601912 319.292852,47.4708489 318.685634,48.5004664 C318.415403,48.958139 318.489739,49.5411613 318.865205,49.9172108 L320.836695,51.8898671 L317.539121,55.1888993 L315.566465,53.2159515 C315.190124,52.8399021 314.607101,52.7658582 314.149137,53.0363806 C313.11952,53.6435984 312.009445,54.1030201 310.852146,54.400653 C310.337628,54.5335821 309.977612,54.9976679 309.977612,55.5293843 L309.977612,58.3208955 L305.313433,58.3208955 L305.313433,55.5293843 C305.313433,54.9976679 304.953416,54.5335821 304.438899,54.400653 C303.2816,54.1030201 302.171525,53.6435984 301.141908,53.0363806 C300.683944,52.7658582 300.100921,52.8399021 299.72458,53.2159515 L297.751924,55.1888993 L294.454349,51.8898671 L296.42584,49.9172108 C296.801306,49.5411613 296.875641,48.958139 296.60541,48.5004664 C295.998193,47.4708489 295.539063,46.3601912 295.241138,45.2028918 C295.108209,44.6883746 294.644123,44.3283582 294.112407,44.3283582 L291.320896,44.3283582 L291.320896,39.6641791 L294.112407,39.6641791 C294.644123,39.6641791 295.108209,39.3041628 295.241138,38.7896455 C295.429454,38.0556203 295.683361,37.3408349 295.999359,36.6525769 C296.181553,36.2534981 296.383862,35.8643307 296.60541,35.4865322 C296.874767,35.0285681 296.801014,34.4464202 296.42584,34.0706623 L294.454349,32.098006 L297.751924,28.7989739 L299.72458,30.7725046 C300.100921,31.1485541 300.683944,31.2220149 301.141908,30.951201 C302.171525,30.3445663 303.2816,29.8845616 304.438899,29.5869287 C304.953416,29.454291 305.313433,28.9896222 305.313433,28.4587803 L305.313433,25.6716418 L309.977612,25.6716418 L309.977612,28.463153 C309.977612,28.9948694 310.337628,29.4589552 310.852146,29.5918843 C312.009445,29.8895172 313.11952,30.3489389 314.149137,30.9561567 C314.607101,31.2266791 315.190124,31.1526352 315.566465,30.7765858 L317.539121,28.8036381 L320.836695,32.1026702 L318.865205,34.0753265 C318.489739,34.451376 318.415403,35.0343984 318.685634,35.4920709 C319.292852,36.5216884 319.751982,37.6323461 320.049907,38.7896455 C320.182836,39.3041628 320.646922,39.6641791 321.178638,39.6641791 L323.970149,39.6641791 L323.970149,44.3283582 Z" id="Shape"/>
                <polygon id="Path" points="326.302239 58.3208955 333.298507 58.3208955 333.298507 60.6529851 326.302239 60.6529851"/>
                <g id="skills">
                    <path d="M33,11 C21.4208126,11 12,20.4202392 12,32 C12,43.5791874 21.4208126,53 33,53 C44.5797608,53 54,43.5791874 54,32 C54,20.4202392 44.5797608,11 33,11 Z M22.4306154,47.3672382 L22.4306154,40.0061712 C22.4363497,37.7411391 24.1273824,35.833925 26.3752116,35.5569603 C29.3461308,39.0193054 34.4828791,39.6082136 38.1596854,36.9079515 C38.6975588,36.5145814 39.1884113,36.061575 39.6230681,35.5569603 C41.8720441,35.833925 43.5630769,37.7405657 43.5693844,40.0061712 L43.5693844,47.3672382 C40.4866473,49.4373055 36.9159249,50.6512479 32.9999999,50.6512479 C29.0840751,50.6512479 25.5133526,49.4373055 22.4306154,47.3672382 Z M45.9181366,45.4525694 L45.9181366,40.0061712 C45.9083884,36.2336027 42.8503086,33.1789634 39.0771667,33.174376 C38.7038665,33.174376 38.3523565,33.3527114 38.1310142,33.65376 C36.9314073,35.2868767 35.0264868,36.2519523 32.9999999,36.2519523 C30.9735132,36.2519523 29.0680192,35.2868767 27.8684124,33.65376 C27.6476435,33.3527114 27.2961335,33.174376 26.9228333,33.174376 C23.1502648,33.1789634 20.0916116,36.2336027 20.0818633,40.0061712 L20.0818633,45.4525694 C16.4176724,41.9363224 14.3447381,37.0782589 14.341871,31.9999999 C14.341871,21.7156081 22.7121675,13.3487521 32.9965594,13.3487521 C43.2809514,13.3487521 51.6558353,21.7161815 51.6558353,31.9999999 C51.654115,37.0782589 49.5817542,41.9363224 45.9181366,45.4525694 Z" id="Shape"/>
                    <path d="M61.189977,35.8156449 C61.4756772,33.1802993 61.4064165,30.518404 60.9850809,27.9009505 L64.256493,24.7634694 C64.6143398,24.4206322 64.7199622,23.8907926 64.521415,23.4365621 L60.7969226,14.9227681 C60.5960667,14.463343 60.1274029,14.180531 59.6269945,14.2180468 L55.0985013,14.5510724 C53.4685669,12.4536466 51.5344628,10.6113288 49.3602551,9.08529862 L49.4930046,4.5614619 C49.5080112,4.06048074 49.2049957,3.60451855 48.7374862,3.42386524 L40.0718223,0.0791810706 C39.6060443,-0.100317977 39.0773547,0.0318534311 38.7512523,0.409898008 L35.8169087,3.81056722 C33.1809632,3.52544667 30.5184677,3.59412961 27.9009916,4.01546162 L24.7634835,0.744077727 C24.4206431,0.38623404 23.8907991,0.280612547 23.4365645,0.479158076 L14.9232741,4.20477247 C14.463845,4.40562667 14.1810307,4.87428647 14.2179697,5.37411337 L14.5509981,9.90314471 C12.4535543,11.533065 10.6112205,13.4671523 9.085177,15.6407642 L4.56130117,15.5080156 C4.05973854,15.4912778 3.60319527,15.7948679 3.42369467,16.2641048 L0.0795588666,24.9291165 C-0.100518868,25.3948905 0.0316535349,25.9229984 0.40970138,26.2496751 L3.81097727,29.1839933 C3.52527698,31.8193389 3.59396051,34.4812343 4.01587345,37.0986876 L0.743884136,40.2361687 C0.386037208,40.5790061 0.280414801,41.1088456 0.479539182,41.5630762 L4.20460866,50.0762929 C4.40546474,50.5357181 4.87412844,50.81853 5.3745368,50.7815913 L9.90303016,50.4485658 C11.5329645,52.5459915 13.4670685,54.3883093 15.6406992,55.9143395 L15.5079495,60.4381764 C15.4929431,60.9391575 15.7959585,61.3951196 16.2640452,61.575773 L24.9297091,64.9204571 C25.395487,65.1005332 25.9241767,64.968362 26.2502792,64.5897403 L29.1840455,61.1884938 C31.8194139,61.4741916 34.4813322,61.4055087 37.0988082,60.9841765 L40.2363165,64.2555604 C40.5797339,64.6134041 41.1090009,64.7190257 41.5632354,64.5204802 L50.0771029,60.7954429 C50.5359549,60.5945886 50.8187692,60.1259289 50.7818302,59.626102 L50.4488018,55.097648 C52.5462458,53.4671504 54.3885795,51.5330631 55.9146227,49.3588741 L60.4384987,49.4916225 C60.9394842,49.5060518 61.3954502,49.2030389 61.5761052,48.7355335 L64.9208183,40.0699445 C65.1003188,39.6041705 64.9681464,39.0760626 64.5900985,38.7493859 L61.189977,35.8156449 Z M59.6714369,47.1038817 L55.3391821,46.9763278 C54.9311213,46.96363 54.5461475,47.1627527 54.3204731,47.5027043 C52.7551821,49.8535064 50.7922193,51.9145706 48.5204695,53.5929729 C48.194367,53.8342288 48.0142893,54.2255482 48.0443024,54.6301424 L48.3629015,58.9646683 L41.3716142,62.0230775 L38.3703186,58.8936768 C38.0955846,58.6074019 37.6956043,58.4781164 37.3048588,58.5496852 C34.5153854,59.059901 31.6641545,59.1337784 28.8521714,58.7678543 C28.4579629,58.7164865 28.0643314,58.86655 27.8046039,59.1678312 L25.0041643,62.414397 L17.8957111,59.6716983 L18.022689,55.3389038 C18.0348096,54.9320009 17.8362624,54.5470304 17.4974622,54.3207808 C15.1460627,52.7549261 13.0849806,50.7925575 11.4065638,48.5208273 C11.1653059,48.1947278 10.773983,48.0152288 10.3693853,48.0446642 L6.03482182,48.3632605 L2.97638616,41.3720338 L6.10523691,38.3707642 C6.39209147,38.0960326 6.52137805,37.6960557 6.44980869,37.3053135 C5.93901131,34.5158642 5.8657104,31.6646582 6.23163751,28.8526994 C6.28300595,28.4584941 6.13236404,28.064866 5.8316572,27.8051408 L2.58448633,25.003571 L5.32778588,17.8951793 L9.66061782,18.0227332 C10.0675242,18.0342767 10.4524981,17.8357312 10.6787496,17.4963567 C12.2446178,15.1455546 14.2070034,13.0850676 16.4793304,11.406088 C16.8054327,11.1654093 16.9849333,10.7735128 16.9549203,10.3694958 L16.6363213,6.03439269 L23.6276086,2.97598347 L26.6289041,6.10538415 C26.903638,6.3916591 27.3041956,6.52094456 27.694364,6.4499531 C30.4844146,5.93858285 33.3367997,5.86470545 36.1493599,6.23120668 C36.5435686,6.28257453 36.9371999,6.13193391 37.1969275,5.83122982 L39.9979443,2.58466415 L47.1058203,5.32793999 L46.9782653,9.66015719 C46.9661445,10.0676373 47.1646918,10.4526079 47.5040692,10.6788575 C49.8548917,12.244135 51.9159736,14.2070808 53.5943905,16.478811 C53.8356485,16.8049104 54.2269713,16.9844095 54.631569,16.9549739 L58.9661323,16.6363776 L62.0251451,23.6276043 L58.8957174,26.6288739 C58.60944,26.9036055 58.4795763,27.3035824 58.5511455,27.6943247 C59.061943,30.4837739 59.135821,33.3349801 58.7698938,36.1469389 C58.7185255,36.5411441 58.8685903,36.934195 59.1698741,37.1939202 L62.4153136,39.99549 L59.6714369,47.1038817 Z" id="Shape"/>
                    <path d="M32.5,19 C28.3579336,19 25,22.3574861 25,26.4997117 C25,30.6425139 28.3579336,34 32.5,34 C36.6420664,34 40,30.6419374 40,26.4997117 C39.9953875,22.3597923 36.6403368,19.0046127 32.5,19 Z M32.5,31.6382856 C29.6621311,31.6382856 27.3616236,29.3376897 27.3616236,26.4997117 C27.3616236,23.6617336 29.6621311,21.3611378 32.5,21.3611378 C35.3378691,21.3611378 37.6383764,23.6617336 37.6383764,26.4997117 C37.634917,29.3365366 35.3367159,31.634826 32.5,31.6382856 Z" id="Shape"/>
                </g>
            </g>
            <path d="M91.9551667,177 L91.9551667,172.022 L94.1591667,172.022 C95.6918333,172.022 96.873,171.642 97.7026667,170.882 C98.5323333,170.122 98.9471667,169.102333 98.9471667,167.823 C98.9471667,166.518333 98.545,165.486 97.7406667,164.726 C96.9363333,163.966 95.7425,163.586 94.1591667,163.586 L94.1591667,163.586 L89.2761667,163.586 L89.2761667,177 L91.9551667,177 Z M93.8741667,169.875 L91.9551667,169.875 L91.9551667,165.752 L93.8741667,165.752 C94.7101667,165.752 95.3118333,165.929333 95.6791667,166.284 C96.0465,166.638667 96.2301667,167.151667 96.2301667,167.823 C96.2301667,169.191 95.4448333,169.875 93.8741667,169.875 L93.8741667,169.875 Z M104.165833,177 L104.165833,171.927 C104.165833,170.103 105.1475,169.191 107.110833,169.191 L107.110833,169.191 L107.889833,169.191 L107.889833,166.322 C107.091833,166.322 106.369833,166.515167 105.723833,166.9015 C105.077833,167.287833 104.5585,167.816667 104.165833,168.488 L104.165833,168.488 L104.165833,166.474 L101.486833,166.474 L101.486833,177 L104.165833,177 Z M115.0275,177.133 C116.0535,177.133 116.975,176.9145 117.792,176.4775 C118.609,176.0405 119.251833,175.416667 119.7205,174.606 C120.189167,173.795333 120.4235,172.839 120.4235,171.737 C120.4235,170.635 120.189167,169.6755 119.7205,168.8585 C119.251833,168.0415 118.609,167.417667 117.792,166.987 C116.975,166.556333 116.0535,166.341 115.0275,166.341 C114.0015,166.341 113.08,166.556333 112.263,166.987 C111.446,167.417667 110.803167,168.0415 110.3345,168.8585 C109.865833,169.6755 109.6315,170.635 109.6315,171.737 C109.6315,172.839 109.865833,173.795333 110.3345,174.606 C110.803167,175.416667 111.446,176.0405 112.263,176.4775 C113.08,176.9145 114.0015,177.133 115.0275,177.133 Z M115.0275,174.815 C114.280167,174.815 113.646833,174.552167 113.1275,174.0265 C112.608167,173.500833 112.3485,172.737667 112.3485,171.737 C112.3485,170.736333 112.608167,169.973167 113.1275,169.4475 C113.646833,168.921833 114.280167,168.659 115.0275,168.659 C115.774833,168.659 116.408167,168.921833 116.9275,169.4475 C117.446833,169.973167 117.7065,170.736333 117.7065,171.737 C117.7065,172.737667 117.446833,173.500833 116.9275,174.0265 C116.408167,174.552167 115.774833,174.815 115.0275,174.815 Z M127.238167,177.133 C128.124833,177.133 128.881667,176.920833 129.508667,176.4965 C130.135667,176.072167 130.5885,175.505333 130.867167,174.796 L130.867167,174.796 L130.867167,177 L133.527167,177 L133.527167,162.94 L130.867167,162.94 L130.867167,168.659 C130.5885,167.949667 130.135667,167.386 129.508667,166.968 C128.881667,166.55 128.124833,166.341 127.238167,166.341 C126.3515,166.341 125.5535,166.556333 124.844167,166.987 C124.134833,167.417667 123.580667,168.0415 123.181667,168.8585 C122.782667,169.6755 122.583167,170.635 122.583167,171.737 C122.583167,172.839 122.782667,173.7985 123.181667,174.6155 C123.580667,175.4325 124.134833,176.056333 124.844167,176.487 C125.5535,176.917667 126.3515,177.133 127.238167,177.133 Z M128.074167,174.777 C127.238167,174.777 126.566833,174.507833 126.060167,173.9695 C125.5535,173.431167 125.300167,172.687 125.300167,171.737 C125.300167,170.787 125.5535,170.039667 126.060167,169.495 C126.566833,168.950333 127.238167,168.678 128.074167,168.678 C128.884833,168.678 129.553,168.9535 130.078667,169.5045 C130.604333,170.0555 130.867167,170.799667 130.867167,171.737 C130.867167,172.661667 130.604333,173.3995 130.078667,173.9505 C129.553,174.5015 128.884833,174.777 128.074167,174.777 Z M140.550833,177.133 C141.386833,177.133 142.124667,176.9335 142.764333,176.5345 C143.404,176.1355 143.863167,175.581333 144.141833,174.872 L144.141833,174.872 L144.141833,177 L146.820833,177 L146.820833,166.474 L144.141833,166.474 L144.141833,172.06 C144.141833,172.984667 143.913833,173.694 143.457833,174.188 C143.001833,174.682 142.3875,174.929 141.614833,174.929 C140.880167,174.929 140.2975,174.697833 139.866833,174.2355 C139.436167,173.773167 139.220833,173.124 139.220833,172.288 L139.220833,172.288 L139.220833,166.474 L136.560833,166.474 L136.560833,172.592 C136.560833,174.023333 136.921833,175.138 137.643833,175.936 C138.365833,176.734 139.334833,177.133 140.550833,177.133 Z M154.7755,177.133 C156.130833,177.133 157.261333,176.765667 158.167,176.031 C159.072667,175.296333 159.6395,174.295667 159.8675,173.029 L159.8675,173.029 L157.0365,173.029 C156.9225,173.586333 156.662833,174.0265 156.2575,174.3495 C155.852167,174.6725 155.339167,174.834 154.7185,174.834 C154.009167,174.834 153.417,174.571167 152.942,174.0455 C152.467,173.519833 152.2295,172.750333 152.2295,171.737 C152.2295,170.723667 152.467,169.954167 152.942,169.4285 C153.417,168.902833 154.009167,168.64 154.7185,168.64 C155.339167,168.64 155.852167,168.8015 156.2575,169.1245 C156.662833,169.4475 156.9225,169.887667 157.0365,170.445 L157.0365,170.445 L159.8675,170.445 C159.6395,169.178333 159.072667,168.177667 158.167,167.443 C157.261333,166.708333 156.130833,166.341 154.7755,166.341 C153.7495,166.341 152.8375,166.556333 152.0395,166.987 C151.2415,167.417667 150.620833,168.0415 150.1775,168.8585 C149.734167,169.6755 149.5125,170.635 149.5125,171.737 C149.5125,172.839 149.734167,173.795333 150.1775,174.606 C150.620833,175.416667 151.2415,176.0405 152.0395,176.4775 C152.8375,176.9145 153.7495,177.133 154.7755,177.133 Z M168.183167,177 L168.183167,174.701 L167.138167,174.701 C166.656833,174.701 166.314833,174.599667 166.112167,174.397 C165.9095,174.194333 165.808167,173.839667 165.808167,173.333 L165.808167,173.333 L165.808167,168.735 L168.164167,168.735 L168.164167,166.474 L165.808167,166.474 L165.808167,163.871 L163.129167,163.871 L163.129167,166.474 L161.666167,166.474 L161.666167,168.735 L163.129167,168.735 L163.129167,173.295 C163.129167,174.625 163.442667,175.575 164.069667,176.145 C164.696667,176.715 165.599167,177 166.777167,177 L166.777167,177 L168.183167,177 Z M172.242833,164.897 C172.736833,164.897 173.135833,164.760833 173.439833,164.4885 C173.743833,164.216167 173.895833,163.871 173.895833,163.453 C173.895833,163.022333 173.743833,162.670833 173.439833,162.3985 C173.135833,162.126167 172.736833,161.99 172.242833,161.99 C171.748833,161.99 171.349833,162.126167 171.045833,162.3985 C170.741833,162.670833 170.589833,163.022333 170.589833,163.453 C170.589833,163.871 170.741833,164.216167 171.045833,164.4885 C171.349833,164.760833 171.748833,164.897 172.242833,164.897 Z M173.572833,177 L173.572833,166.474 L170.893833,166.474 L170.893833,177 L173.572833,177 Z M181.6605,177.133 C182.6865,177.133 183.608,176.9145 184.425,176.4775 C185.242,176.0405 185.884833,175.416667 186.3535,174.606 C186.822167,173.795333 187.0565,172.839 187.0565,171.737 C187.0565,170.635 186.822167,169.6755 186.3535,168.8585 C185.884833,168.0415 185.242,167.417667 184.425,166.987 C183.608,166.556333 182.6865,166.341 181.6605,166.341 C180.6345,166.341 179.713,166.556333 178.896,166.987 C178.079,167.417667 177.436167,168.0415 176.9675,168.8585 C176.498833,169.6755 176.2645,170.635 176.2645,171.737 C176.2645,172.839 176.498833,173.795333 176.9675,174.606 C177.436167,175.416667 178.079,176.0405 178.896,176.4775 C179.713,176.9145 180.6345,177.133 181.6605,177.133 Z M181.6605,174.815 C180.913167,174.815 180.279833,174.552167 179.7605,174.0265 C179.241167,173.500833 178.9815,172.737667 178.9815,171.737 C178.9815,170.736333 179.241167,169.973167 179.7605,169.4475 C180.279833,168.921833 180.913167,168.659 181.6605,168.659 C182.407833,168.659 183.041167,168.921833 183.5605,169.4475 C184.079833,169.973167 184.3395,170.736333 184.3395,171.737 C184.3395,172.737667 184.079833,173.500833 183.5605,174.0265 C183.041167,174.552167 182.407833,174.815 181.6605,174.815 Z M192.427167,177 L192.427167,171.414 C192.427167,170.489333 192.655167,169.78 193.111167,169.286 C193.567167,168.792 194.175167,168.545 194.935167,168.545 C195.6825,168.545 196.2715,168.776167 196.702167,169.2385 C197.132833,169.700833 197.348167,170.35 197.348167,171.186 L197.348167,171.186 L197.348167,177 L200.008167,177 L200.008167,170.882 C200.008167,169.438 199.647167,168.317 198.925167,167.519 C198.203167,166.721 197.234167,166.322 196.018167,166.322 C195.182167,166.322 194.444333,166.5215 193.804667,166.9205 C193.165,167.3195 192.705833,167.873667 192.427167,168.583 L192.427167,168.583 L192.427167,166.474 L189.748167,166.474 L189.748167,177 L192.427167,177 Z M73.6233333,201.133 C74.3833333,201.133 75.0483333,200.955667 75.6183333,200.601 C76.1883333,200.246333 76.5873333,199.777667 76.8153333,199.195 C76.8913333,199.055667 76.98,198.859333 77.0813333,198.606 L77.0813333,198.606 L79.1333333,201 L81.8313333,201 L75.0103333,192.412 C74.7443333,192.095333 74.5543333,191.829333 74.4403333,191.614 C74.3263333,191.398667 74.2693333,191.145333 74.2693333,190.854 C74.2693333,190.524667 74.3833333,190.246 74.6113333,190.018 C74.8393333,189.79 75.1496667,189.676 75.5423333,189.676 C75.973,189.676 76.3086667,189.7995 76.5493333,190.0465 C76.79,190.2935 76.9166667,190.645 76.9293333,191.101 C76.9546667,191.215 76.9673333,191.430333 76.9673333,191.747 L76.9673333,191.747 L79.4563333,191.747 L79.4753333,191.386 C79.4753333,190.955333 79.412,190.55 79.2853333,190.17 C79.108,189.372 78.7121667,188.719667 78.0978333,188.213 C77.4835,187.706333 76.6126667,187.453 75.4853333,187.453 C74.7,187.453 74.0255,187.598667 73.4618333,187.89 C72.8981667,188.181333 72.4738333,188.5645 72.1888333,189.0395 C71.9038333,189.5145 71.7613333,190.024333 71.7613333,190.569 C71.7613333,190.999667 71.831,191.389167 71.9703333,191.7375 C72.1096667,192.085833 72.306,192.437333 72.5593333,192.792 L72.5593333,192.792 L72.7873333,193.134 C72.154,193.159333 71.5808333,193.3335 71.0678333,193.6565 C70.5548333,193.9795 70.1495,194.432333 69.8518333,195.015 C69.5541667,195.597667 69.4053333,196.275333 69.4053333,197.048 C69.4053333,197.833333 69.5763333,198.533167 69.9183333,199.1475 C70.2603333,199.761833 70.7511667,200.246333 71.3908333,200.601 C72.0305,200.955667 72.7746667,201.133 73.6233333,201.133 Z M73.6423333,198.891 C73.0976667,198.891 72.6385,198.716833 72.2648333,198.3685 C71.8911667,198.020167 71.7043333,197.554667 71.7043333,196.972 C71.7043333,196.389333 71.8721667,195.939667 72.2078333,195.623 C72.5435,195.306333 72.971,195.148 73.4903333,195.148 C74.035,195.148 74.5068333,195.331667 74.9058333,195.699 C75.3048333,196.066333 75.5043333,196.528667 75.5043333,197.086 C75.5043333,197.618 75.3301667,198.051833 74.9818333,198.3875 C74.6335,198.723167 74.187,198.891 73.6423333,198.891 Z M94.0736667,201.133 C95.1123333,201.133 96.0401667,200.924 96.8571667,200.506 C97.6741667,200.088 98.3138333,199.4515 98.7761667,198.5965 C99.2385,197.7415 99.4696667,196.693333 99.4696667,195.452 L99.4696667,195.452 L99.4696667,187.586 L96.8096667,187.586 L96.8096667,195.452 C96.8096667,196.503333 96.5785,197.291833 96.1161667,197.8175 C95.6538333,198.343167 94.992,198.606 94.1306667,198.606 C93.2566667,198.606 92.5885,198.343167 92.1261667,197.8175 C91.6638333,197.291833 91.4326667,196.503333 91.4326667,195.452 L91.4326667,195.452 L91.4326667,187.586 L88.7726667,187.586 L88.7726667,195.452 C88.7726667,197.314 89.254,198.726333 90.2166667,199.689 C91.1793333,200.651667 92.465,201.133 94.0736667,201.133 Z M107.006333,201.133 C108.197,201.133 109.143833,200.854333 109.846833,200.297 C110.549833,199.739667 110.901333,199.011333 110.901333,198.112 C110.901333,197.39 110.720833,196.816833 110.359833,196.3925 C109.998833,195.968167 109.568167,195.657833 109.067833,195.4615 C108.5675,195.265167 107.918333,195.078333 107.120333,194.901 C106.550333,194.761667 106.113333,194.641333 105.809333,194.54 C105.505333,194.438667 105.252,194.299333 105.049333,194.122 C104.846667,193.944667 104.745333,193.710333 104.745333,193.419 C104.745333,193.051667 104.872,192.760333 105.125333,192.545 C105.378667,192.329667 105.733333,192.222 106.189333,192.222 C106.759333,192.222 107.221667,192.374 107.576333,192.678 C107.931,192.982 108.159,193.387333 108.260333,193.894 L108.260333,193.894 L110.768333,193.894 C110.578333,192.817333 110.097,191.956 109.324333,191.31 C108.551667,190.664 107.525667,190.341 106.246333,190.341 C105.017667,190.341 104.055,190.626 103.358333,191.196 C102.661667,191.766 102.313333,192.507 102.313333,193.419 C102.313333,194.128333 102.4875,194.685667 102.835833,195.091 C103.184167,195.496333 103.602167,195.790833 104.089833,195.9745 C104.5775,196.158167 105.214,196.338667 105.999333,196.516 C106.569333,196.655333 107.0095,196.775667 107.319833,196.877 C107.630167,196.978333 107.889833,197.124 108.098833,197.314 C108.307833,197.504 108.412333,197.751 108.412333,198.055 C108.412333,198.409667 108.292,198.697833 108.051333,198.9195 C107.810667,199.141167 107.462333,199.252 107.006333,199.252 C106.373,199.252 105.86,199.103167 105.467333,198.8055 C105.074667,198.507833 104.846667,198.099333 104.783333,197.58 L104.783333,197.58 L102.218333,197.58 C102.395667,198.72 102.896,199.597167 103.719333,200.2115 C104.542667,200.825833 105.638333,201.133 107.006333,201.133 Z M118.419,201.133 C119.293,201.133 120.087833,200.968333 120.8035,200.639 C121.519167,200.309667 122.105,199.853667 122.561,199.271 C123.017,198.688333 123.314667,198.029667 123.454,197.295 L123.454,197.295 L120.623,197.295 C120.509,197.814333 120.246167,198.226 119.8345,198.53 C119.422833,198.834 118.906667,198.986 118.286,198.986 C117.589333,198.986 117.006667,198.764333 116.538,198.321 C116.069333,197.877667 115.816,197.187333 115.778,196.25 L115.778,196.25 L123.492,196.25 C123.555333,195.908 123.587,195.604 123.587,195.338 C123.587,194.375333 123.374833,193.517167 122.9505,192.7635 C122.526167,192.009833 121.9245,191.417667 121.1455,190.987 C120.3665,190.556333 119.457667,190.341 118.419,190.341 C117.393,190.341 116.481,190.556333 115.683,190.987 C114.885,191.417667 114.264333,192.0415 113.821,192.8585 C113.377667,193.6755 113.156,194.635 113.156,195.737 C113.156,196.839 113.377667,197.795333 113.821,198.606 C114.264333,199.416667 114.885,200.0405 115.683,200.4775 C116.481,200.9145 117.393,201.133 118.419,201.133 Z M120.889,195.072 L115.778,195.072 C115.828667,194.210667 116.101,193.558333 116.595,193.115 C117.089,192.671667 117.697,192.45 118.419,192.45 C119.128333,192.45 119.726833,192.671667 120.2145,193.115 C120.702167,193.558333 120.927,194.210667 120.889,195.072 L120.889,195.072 Z M128.957667,201 L128.957667,195.927 C128.957667,194.103 129.939333,193.191 131.902667,193.191 L131.902667,193.191 L132.681667,193.191 L132.681667,190.322 C131.883667,190.322 131.161667,190.515167 130.515667,190.9015 C129.869667,191.287833 129.350333,191.816667 128.957667,192.488 L128.957667,192.488 L128.957667,190.474 L126.278667,190.474 L126.278667,201 L128.957667,201 Z M144.62,201.133 C145.582667,201.133 146.399667,200.958833 147.071,200.6105 C147.742333,200.262167 148.249,199.799833 148.591,199.2235 C148.933,198.647167 149.104,198.017 149.104,197.333 C149.104,196.471667 148.914,195.775 148.534,195.243 C148.154,194.711 147.694833,194.312 147.1565,194.046 C146.618167,193.78 145.918333,193.495 145.057,193.191 C144.436333,192.988333 143.9455,192.804667 143.5845,192.64 C143.2235,192.475333 142.925833,192.263167 142.6915,192.0035 C142.457167,191.743833 142.34,191.417667 142.34,191.025 C142.34,190.531 142.492,190.154167 142.796,189.8945 C143.1,189.634833 143.499,189.505 143.993,189.505 C144.563,189.505 145.012667,189.660167 145.342,189.9705 C145.671333,190.280833 145.874,190.676667 145.95,191.158 L145.95,191.158 L148.838,191.158 C148.724,190.018 148.245833,189.106 147.4035,188.422 C146.561167,187.738 145.430667,187.396 144.012,187.396 C142.644,187.396 141.545167,187.7285 140.7155,188.3935 C139.885833,189.0585 139.471,189.967333 139.471,191.12 C139.471,191.956 139.657833,192.633667 140.0315,193.153 C140.405167,193.672333 140.858,194.068167 141.39,194.3405 C141.922,194.612833 142.606,194.888333 143.442,195.167 C144.088,195.382333 144.594667,195.572333 144.962,195.737 C145.329333,195.901667 145.633333,196.120167 145.874,196.3925 C146.114667,196.664833 146.235,197.01 146.235,197.428 C146.235,197.896667 146.086167,198.279833 145.7885,198.5775 C145.490833,198.875167 145.063333,199.024 144.506,199.024 C143.885333,199.024 143.388167,198.8435 143.0145,198.4825 C142.640833,198.1215 142.422333,197.668667 142.359,197.124 L142.359,197.124 L139.509,197.124 C139.572333,197.934667 139.828833,198.644 140.2785,199.252 C140.728167,199.86 141.326667,200.3255 142.074,200.6485 C142.821333,200.9715 143.67,201.133 144.62,201.133 Z M155.671667,201.133 C156.507667,201.133 157.2455,200.9335 157.885167,200.5345 C158.524833,200.1355 158.984,199.581333 159.262667,198.872 L159.262667,198.872 L159.262667,201 L161.941667,201 L161.941667,190.474 L159.262667,190.474 L159.262667,196.06 C159.262667,196.984667 159.034667,197.694 158.578667,198.188 C158.122667,198.682 157.508333,198.929 156.735667,198.929 C156.001,198.929 155.418333,198.697833 154.987667,198.2355 C154.557,197.773167 154.341667,197.124 154.341667,196.288 L154.341667,196.288 L154.341667,190.474 L151.681667,190.474 L151.681667,196.592 C151.681667,198.023333 152.042667,199.138 152.764667,199.936 C153.486667,200.734 154.455667,201.133 155.671667,201.133 Z M167.844333,206.016 L167.844333,198.796 C168.110333,199.505333 168.556833,200.072167 169.183833,200.4965 C169.810833,200.920833 170.567667,201.133 171.454333,201.133 C172.341,201.133 173.139,200.917667 173.848333,200.487 C174.557667,200.056333 175.111833,199.4325 175.510833,198.6155 C175.909833,197.7985 176.109333,196.839 176.109333,195.737 C176.109333,194.635 175.909833,193.6755 175.510833,192.8585 C175.111833,192.0415 174.557667,191.417667 173.848333,190.987 C173.139,190.556333 172.341,190.341 171.454333,190.341 C170.567667,190.341 169.810833,190.55 169.183833,190.968 C168.556833,191.386 168.110333,191.949667 167.844333,192.659 L167.844333,192.659 L167.844333,190.474 L165.165333,190.474 L165.165333,206.016 L167.844333,206.016 Z M170.618333,198.777 C169.807667,198.777 169.1395,198.5015 168.613833,197.9505 C168.088167,197.3995 167.825333,196.661667 167.825333,195.737 C167.825333,194.799667 168.088167,194.0555 168.613833,193.5045 C169.1395,192.9535 169.807667,192.678 170.618333,192.678 C171.454333,192.678 172.125667,192.950333 172.632333,193.495 C173.139,194.039667 173.392333,194.787 173.392333,195.737 C173.392333,196.687 173.139,197.431167 172.632333,197.9695 C172.125667,198.507833 171.454333,198.777 170.618333,198.777 Z M181.48,206.016 L181.48,198.796 C181.746,199.505333 182.1925,200.072167 182.8195,200.4965 C183.4465,200.920833 184.203333,201.133 185.09,201.133 C185.976667,201.133 186.774667,200.917667 187.484,200.487 C188.193333,200.056333 188.7475,199.4325 189.1465,198.6155 C189.5455,197.7985 189.745,196.839 189.745,195.737 C189.745,194.635 189.5455,193.6755 189.1465,192.8585 C188.7475,192.0415 188.193333,191.417667 187.484,190.987 C186.774667,190.556333 185.976667,190.341 185.09,190.341 C184.203333,190.341 183.4465,190.55 182.8195,190.968 C182.1925,191.386 181.746,191.949667 181.48,192.659 L181.48,192.659 L181.48,190.474 L178.801,190.474 L178.801,206.016 L181.48,206.016 Z M184.254,198.777 C183.443333,198.777 182.775167,198.5015 182.2495,197.9505 C181.723833,197.3995 181.461,196.661667 181.461,195.737 C181.461,194.799667 181.723833,194.0555 182.2495,193.5045 C182.775167,192.9535 183.443333,192.678 184.254,192.678 C185.09,192.678 185.761333,192.950333 186.268,193.495 C186.774667,194.039667 187.028,194.787 187.028,195.737 C187.028,196.687 186.774667,197.431167 186.268,197.9695 C185.761333,198.507833 185.09,198.777 184.254,198.777 Z M197.300667,201.133 C198.326667,201.133 199.248167,200.9145 200.065167,200.4775 C200.882167,200.0405 201.525,199.416667 201.993667,198.606 C202.462333,197.795333 202.696667,196.839 202.696667,195.737 C202.696667,194.635 202.462333,193.6755 201.993667,192.8585 C201.525,192.0415 200.882167,191.417667 200.065167,190.987 C199.248167,190.556333 198.326667,190.341 197.300667,190.341 C196.274667,190.341 195.353167,190.556333 194.536167,190.987 C193.719167,191.417667 193.076333,192.0415 192.607667,192.8585 C192.139,193.6755 191.904667,194.635 191.904667,195.737 C191.904667,196.839 192.139,197.795333 192.607667,198.606 C193.076333,199.416667 193.719167,200.0405 194.536167,200.4775 C195.353167,200.9145 196.274667,201.133 197.300667,201.133 Z M197.300667,198.815 C196.553333,198.815 195.92,198.552167 195.400667,198.0265 C194.881333,197.500833 194.621667,196.737667 194.621667,195.737 C194.621667,194.736333 194.881333,193.973167 195.400667,193.4475 C195.92,192.921833 196.553333,192.659 197.300667,192.659 C198.048,192.659 198.681333,192.921833 199.200667,193.4475 C199.72,193.973167 199.979667,194.736333 199.979667,195.737 C199.979667,196.737667 199.72,197.500833 199.200667,198.0265 C198.681333,198.552167 198.048,198.815 197.300667,198.815 Z M208.067333,201 L208.067333,195.927 C208.067333,194.103 209.049,193.191 211.012333,193.191 L211.012333,193.191 L211.791333,193.191 L211.791333,190.322 C210.993333,190.322 210.271333,190.515167 209.625333,190.9015 C208.979333,191.287833 208.46,191.816667 208.067333,192.488 L208.067333,192.488 L208.067333,190.474 L205.388333,190.474 L205.388333,201 L208.067333,201 Z M219.689,201 L219.689,198.701 L218.644,198.701 C218.162667,198.701 217.820667,198.599667 217.618,198.397 C217.415333,198.194333 217.314,197.839667 217.314,197.333 L217.314,197.333 L217.314,192.735 L219.67,192.735 L219.67,190.474 L217.314,190.474 L217.314,187.871 L214.635,187.871 L214.635,190.474 L213.172,190.474 L213.172,192.735 L214.635,192.735 L214.635,197.295 C214.635,198.625 214.9485,199.575 215.5755,200.145 C216.2025,200.715 217.105,201 218.283,201 L218.283,201 L219.689,201 Z" id="Production&amp;UserSupport" fill="#FFFFFF" fill-rule="nonzero"/>
            <path d="M216.628333,406.5 L216.628333,401.522 L218.832333,401.522 C220.365,401.522 221.546167,401.142 222.375833,400.382 C223.2055,399.622 223.620333,398.602333 223.620333,397.323 C223.620333,396.018333 223.218167,394.986 222.413833,394.226 C221.6095,393.466 220.415667,393.086 218.832333,393.086 L218.832333,393.086 L213.949333,393.086 L213.949333,406.5 L216.628333,406.5 Z M218.547333,399.375 L216.628333,399.375 L216.628333,395.252 L218.547333,395.252 C219.383333,395.252 219.985,395.429333 220.352333,395.784 C220.719667,396.138667 220.903333,396.651667 220.903333,397.323 C220.903333,398.691 220.118,399.375 218.547333,399.375 L218.547333,399.375 Z M230.891,406.633 C231.765,406.633 232.559833,406.468333 233.2755,406.139 C233.991167,405.809667 234.577,405.353667 235.033,404.771 C235.489,404.188333 235.786667,403.529667 235.926,402.795 L235.926,402.795 L233.095,402.795 C232.981,403.314333 232.718167,403.726 232.3065,404.03 C231.894833,404.334 231.378667,404.486 230.758,404.486 C230.061333,404.486 229.478667,404.264333 229.01,403.821 C228.541333,403.377667 228.288,402.687333 228.25,401.75 L228.25,401.75 L235.964,401.75 C236.027333,401.408 236.059,401.104 236.059,400.838 C236.059,399.875333 235.846833,399.017167 235.4225,398.2635 C234.998167,397.509833 234.3965,396.917667 233.6175,396.487 C232.8385,396.056333 231.929667,395.841 230.891,395.841 C229.865,395.841 228.953,396.056333 228.155,396.487 C227.357,396.917667 226.736333,397.5415 226.293,398.3585 C225.849667,399.1755 225.628,400.135 225.628,401.237 C225.628,402.339 225.849667,403.295333 226.293,404.106 C226.736333,404.916667 227.357,405.5405 228.155,405.9775 C228.953,406.4145 229.865,406.633 230.891,406.633 Z M233.361,400.572 L228.25,400.572 C228.300667,399.710667 228.573,399.058333 229.067,398.615 C229.561,398.171667 230.169,397.95 230.891,397.95 C231.600333,397.95 232.198833,398.171667 232.6865,398.615 C233.174167,399.058333 233.399,399.710667 233.361,400.572 L233.361,400.572 Z M241.429667,406.5 L241.429667,401.427 C241.429667,399.603 242.411333,398.691 244.374667,398.691 L244.374667,398.691 L245.153667,398.691 L245.153667,395.822 C244.355667,395.822 243.633667,396.015167 242.987667,396.4015 C242.341667,396.787833 241.822333,397.316667 241.429667,397.988 L241.429667,397.988 L241.429667,395.974 L238.750667,395.974 L238.750667,406.5 L241.429667,406.5 Z M250.505333,406.5 L250.505333,398.235 L252.633333,398.235 L252.633333,395.974 L250.505333,395.974 L250.505333,395.955 C250.505333,395.258333 250.663667,394.770667 250.980333,394.492 C251.297,394.213333 251.848,394.099333 252.633333,394.15 L252.633333,394.15 L252.633333,391.832 C252.506667,391.819333 252.323,391.813 252.082333,391.813 C250.676333,391.813 249.6155,392.151833 248.899833,392.8295 C248.184167,393.507167 247.826333,394.473 247.826333,395.727 L247.826333,395.727 L247.826333,395.974 L246.477333,395.974 L246.477333,398.235 L247.826333,398.235 L247.826333,406.5 L250.505333,406.5 Z M259.885,406.633 C260.911,406.633 261.8325,406.4145 262.6495,405.9775 C263.4665,405.5405 264.109333,404.916667 264.578,404.106 C265.046667,403.295333 265.281,402.339 265.281,401.237 C265.281,400.135 265.046667,399.1755 264.578,398.3585 C264.109333,397.5415 263.4665,396.917667 262.6495,396.487 C261.8325,396.056333 260.911,395.841 259.885,395.841 C258.859,395.841 257.9375,396.056333 257.1205,396.487 C256.3035,396.917667 255.660667,397.5415 255.192,398.3585 C254.723333,399.1755 254.489,400.135 254.489,401.237 C254.489,402.339 254.723333,403.295333 255.192,404.106 C255.660667,404.916667 256.3035,405.5405 257.1205,405.9775 C257.9375,406.4145 258.859,406.633 259.885,406.633 Z M259.885,404.315 C259.137667,404.315 258.504333,404.052167 257.985,403.5265 C257.465667,403.000833 257.206,402.237667 257.206,401.237 C257.206,400.236333 257.465667,399.473167 257.985,398.9475 C258.504333,398.421833 259.137667,398.159 259.885,398.159 C260.632333,398.159 261.265667,398.421833 261.785,398.9475 C262.304333,399.473167 262.564,400.236333 262.564,401.237 C262.564,402.237667 262.304333,403.000833 261.785,403.5265 C261.265667,404.052167 260.632333,404.315 259.885,404.315 Z M270.651667,406.5 L270.651667,401.427 C270.651667,399.603 271.633333,398.691 273.596667,398.691 L273.596667,398.691 L274.375667,398.691 L274.375667,395.822 C273.577667,395.822 272.855667,396.015167 272.209667,396.4015 C271.563667,396.787833 271.044333,397.316667 270.651667,397.988 L270.651667,397.988 L270.651667,395.974 L267.972667,395.974 L267.972667,406.5 L270.651667,406.5 Z M279.328333,406.5 L279.328333,400.914 C279.328333,400.014667 279.55,399.330667 279.993333,398.862 C280.436667,398.393333 281.032,398.159 281.779333,398.159 C282.501333,398.159 283.068167,398.3775 283.479833,398.8145 C283.8915,399.2515 284.097333,399.875333 284.097333,400.686 L284.097333,400.686 L284.097333,406.5 L286.757333,406.5 L286.757333,400.914 C286.757333,400.014667 286.979,399.330667 287.422333,398.862 C287.865667,398.393333 288.461,398.159 289.208333,398.159 C289.930333,398.159 290.497167,398.3775 290.908833,398.8145 C291.3205,399.2515 291.526333,399.875333 291.526333,400.686 L291.526333,400.686 L291.526333,406.5 L294.186333,406.5 L294.186333,400.382 C294.186333,398.925333 293.815833,397.801167 293.074833,397.0095 C292.333833,396.217833 291.323667,395.822 290.044333,395.822 C289.233667,395.822 288.502167,396.034167 287.849833,396.4585 C287.1975,396.882833 286.706667,397.456 286.377333,398.178 C286.060667,397.418 285.588833,396.835333 284.961833,396.43 C284.334833,396.024667 283.597,395.822 282.748333,395.822 C281.950333,395.822 281.2505,396.008833 280.648833,396.3825 C280.047167,396.756167 279.607,397.285 279.328333,397.969 L279.328333,397.969 L279.328333,395.974 L276.649333,395.974 L276.649333,406.5 L279.328333,406.5 Z M301.457,406.633 C302.343667,406.633 303.103667,406.420833 303.737,405.9965 C304.370333,405.572167 304.82,405.005333 305.086,404.296 L305.086,404.296 L305.086,406.5 L307.746,406.5 L307.746,395.974 L305.086,395.974 L305.086,398.159 C304.82,397.449667 304.370333,396.886 303.737,396.468 C303.103667,396.05 302.343667,395.841 301.457,395.841 C300.570333,395.841 299.772333,396.056333 299.063,396.487 C298.353667,396.917667 297.7995,397.5415 297.4005,398.3585 C297.0015,399.1755 296.802,400.135 296.802,401.237 C296.802,402.339 297.0015,403.2985 297.4005,404.1155 C297.7995,404.9325 298.353667,405.556333 299.063,405.987 C299.772333,406.417667 300.570333,406.633 301.457,406.633 Z M302.293,404.277 C301.457,404.277 300.785667,404.007833 300.279,403.4695 C299.772333,402.931167 299.519,402.187 299.519,401.237 C299.519,400.287 299.772333,399.539667 300.279,398.995 C300.785667,398.450333 301.457,398.178 302.293,398.178 C303.103667,398.178 303.771833,398.4535 304.2975,399.0045 C304.823167,399.5555 305.086,400.299667 305.086,401.237 C305.086,402.161667 304.823167,402.8995 304.2975,403.4505 C303.771833,404.0015 303.103667,404.277 302.293,404.277 Z M313.648667,406.5 L313.648667,400.914 C313.648667,399.989333 313.876667,399.28 314.332667,398.786 C314.788667,398.292 315.396667,398.045 316.156667,398.045 C316.904,398.045 317.493,398.276167 317.923667,398.7385 C318.354333,399.200833 318.569667,399.85 318.569667,400.686 L318.569667,400.686 L318.569667,406.5 L321.229667,406.5 L321.229667,400.382 C321.229667,398.938 320.868667,397.817 320.146667,397.019 C319.424667,396.221 318.455667,395.822 317.239667,395.822 C316.403667,395.822 315.665833,396.0215 315.026167,396.4205 C314.3865,396.8195 313.927333,397.373667 313.648667,398.083 L313.648667,398.083 L313.648667,395.974 L310.969667,395.974 L310.969667,406.5 L313.648667,406.5 Z M329.108333,406.633 C330.463667,406.633 331.594167,406.265667 332.499833,405.531 C333.4055,404.796333 333.972333,403.795667 334.200333,402.529 L334.200333,402.529 L331.369333,402.529 C331.255333,403.086333 330.995667,403.5265 330.590333,403.8495 C330.185,404.1725 329.672,404.334 329.051333,404.334 C328.342,404.334 327.749833,404.071167 327.274833,403.5455 C326.799833,403.019833 326.562333,402.250333 326.562333,401.237 C326.562333,400.223667 326.799833,399.454167 327.274833,398.9285 C327.749833,398.402833 328.342,398.14 329.051333,398.14 C329.672,398.14 330.185,398.3015 330.590333,398.6245 C330.995667,398.9475 331.255333,399.387667 331.369333,399.945 L331.369333,399.945 L334.200333,399.945 C333.972333,398.678333 333.4055,397.677667 332.499833,396.943 C331.594167,396.208333 330.463667,395.841 329.108333,395.841 C328.082333,395.841 327.170333,396.056333 326.372333,396.487 C325.574333,396.917667 324.953667,397.5415 324.510333,398.3585 C324.067,399.1755 323.845333,400.135 323.845333,401.237 C323.845333,402.339 324.067,403.295333 324.510333,404.106 C324.953667,404.916667 325.574333,405.5405 326.372333,405.9775 C327.170333,406.4145 328.082333,406.633 329.108333,406.633 Z M341.623,406.633 C342.497,406.633 343.291833,406.468333 344.0075,406.139 C344.723167,405.809667 345.309,405.353667 345.765,404.771 C346.221,404.188333 346.518667,403.529667 346.658,402.795 L346.658,402.795 L343.827,402.795 C343.713,403.314333 343.450167,403.726 343.0385,404.03 C342.626833,404.334 342.110667,404.486 341.49,404.486 C340.793333,404.486 340.210667,404.264333 339.742,403.821 C339.273333,403.377667 339.02,402.687333 338.982,401.75 L338.982,401.75 L346.696,401.75 C346.759333,401.408 346.791,401.104 346.791,400.838 C346.791,399.875333 346.578833,399.017167 346.1545,398.2635 C345.730167,397.509833 345.1285,396.917667 344.3495,396.487 C343.5705,396.056333 342.661667,395.841 341.623,395.841 C340.597,395.841 339.685,396.056333 338.887,396.487 C338.089,396.917667 337.468333,397.5415 337.025,398.3585 C336.581667,399.1755 336.36,400.135 336.36,401.237 C336.36,402.339 336.581667,403.295333 337.025,404.106 C337.468333,404.916667 338.089,405.5405 338.887,405.9775 C339.685,406.4145 340.597,406.633 341.623,406.633 Z M344.093,400.572 L338.982,400.572 C339.032667,399.710667 339.305,399.058333 339.799,398.615 C340.293,398.171667 340.901,397.95 341.623,397.95 C342.332333,397.95 342.930833,398.171667 343.4185,398.615 C343.906167,399.058333 344.131,399.710667 344.093,400.572 L344.093,400.572 Z M214.592167,430.5 L214.592167,421.285 L217.993167,430.5 L220.311167,430.5 L223.712167,421.247 L223.712167,430.5 L226.372167,430.5 L226.372167,417.238 L223.142167,417.238 L219.190167,427.213 L215.162167,417.238 L211.913167,417.238 L211.913167,430.5 L214.592167,430.5 Z M233.718833,430.633 C234.6055,430.633 235.3655,430.420833 235.998833,429.9965 C236.632167,429.572167 237.081833,429.005333 237.347833,428.296 L237.347833,428.296 L237.347833,430.5 L240.007833,430.5 L240.007833,419.974 L237.347833,419.974 L237.347833,422.159 C237.081833,421.449667 236.632167,420.886 235.998833,420.468 C235.3655,420.05 234.6055,419.841 233.718833,419.841 C232.832167,419.841 232.034167,420.056333 231.324833,420.487 C230.6155,420.917667 230.061333,421.5415 229.662333,422.3585 C229.263333,423.1755 229.063833,424.135 229.063833,425.237 C229.063833,426.339 229.263333,427.2985 229.662333,428.1155 C230.061333,428.9325 230.6155,429.556333 231.324833,429.987 C232.034167,430.417667 232.832167,430.633 233.718833,430.633 Z M234.554833,428.277 C233.718833,428.277 233.0475,428.007833 232.540833,427.4695 C232.034167,426.931167 231.780833,426.187 231.780833,425.237 C231.780833,424.287 232.034167,423.539667 232.540833,422.995 C233.0475,422.450333 233.718833,422.178 234.554833,422.178 C235.3655,422.178 236.033667,422.4535 236.559333,423.0045 C237.085,423.5555 237.347833,424.299667 237.347833,425.237 C237.347833,426.161667 237.085,426.8995 236.559333,427.4505 C236.033667,428.0015 235.3655,428.277 234.554833,428.277 Z M245.9105,430.5 L245.9105,424.914 C245.9105,423.989333 246.1385,423.28 246.5945,422.786 C247.0505,422.292 247.6585,422.045 248.4185,422.045 C249.165833,422.045 249.754833,422.276167 250.1855,422.7385 C250.616167,423.200833 250.8315,423.85 250.8315,424.686 L250.8315,424.686 L250.8315,430.5 L253.4915,430.5 L253.4915,424.382 C253.4915,422.938 253.1305,421.817 252.4085,421.019 C251.6865,420.221 250.7175,419.822 249.5015,419.822 C248.6655,419.822 247.927667,420.0215 247.288,420.4205 C246.648333,420.8195 246.189167,421.373667 245.9105,422.083 L245.9105,422.083 L245.9105,419.974 L243.2315,419.974 L243.2315,430.5 L245.9105,430.5 Z M260.762167,430.633 C261.648833,430.633 262.408833,430.420833 263.042167,429.9965 C263.6755,429.572167 264.125167,429.005333 264.391167,428.296 L264.391167,428.296 L264.391167,430.5 L267.051167,430.5 L267.051167,419.974 L264.391167,419.974 L264.391167,422.159 C264.125167,421.449667 263.6755,420.886 263.042167,420.468 C262.408833,420.05 261.648833,419.841 260.762167,419.841 C259.8755,419.841 259.0775,420.056333 258.368167,420.487 C257.658833,420.917667 257.104667,421.5415 256.705667,422.3585 C256.306667,423.1755 256.107167,424.135 256.107167,425.237 C256.107167,426.339 256.306667,427.2985 256.705667,428.1155 C257.104667,428.9325 257.658833,429.556333 258.368167,429.987 C259.0775,430.417667 259.8755,430.633 260.762167,430.633 Z M261.598167,428.277 C260.762167,428.277 260.090833,428.007833 259.584167,427.4695 C259.0775,426.931167 258.824167,426.187 258.824167,425.237 C258.824167,424.287 259.0775,423.539667 259.584167,422.995 C260.090833,422.450333 260.762167,422.178 261.598167,422.178 C262.408833,422.178 263.077,422.4535 263.602667,423.0045 C264.128333,423.5555 264.391167,424.299667 264.391167,425.237 C264.391167,426.161667 264.128333,426.8995 263.602667,427.4505 C263.077,428.0015 262.408833,428.277 261.598167,428.277 Z M275.594833,435.668 C276.684167,435.668 277.612,435.446333 278.378333,435.003 C279.144667,434.559667 279.721,433.9485 280.107333,433.1695 C280.493667,432.3905 280.686833,431.513333 280.686833,430.538 L280.686833,430.538 L280.686833,419.974 L278.026833,419.974 L278.026833,422.159 C277.760833,421.449667 277.311167,420.886 276.677833,420.468 C276.0445,420.05 275.2845,419.841 274.397833,419.841 C273.511167,419.841 272.713167,420.056333 272.003833,420.487 C271.2945,420.917667 270.740333,421.5415 270.341333,422.3585 C269.942333,423.1755 269.742833,424.135 269.742833,425.237 C269.742833,426.339 269.942333,427.2985 270.341333,428.1155 C270.740333,428.9325 271.2945,429.556333 272.003833,429.987 C272.713167,430.417667 273.511167,430.633 274.397833,430.633 C275.2845,430.633 276.0445,430.420833 276.677833,429.9965 C277.311167,429.572167 277.760833,429.005333 278.026833,428.296 L278.026833,428.296 L278.026833,430.538 C278.026833,431.475333 277.786167,432.175167 277.304833,432.6375 C276.8235,433.099833 276.190167,433.331 275.404833,433.331 C274.720833,433.331 274.160333,433.182167 273.723333,432.8845 C273.286333,432.586833 272.991833,432.172 272.839833,431.64 L272.839833,431.64 L270.198833,431.64 C270.4015,432.881333 270.9715,433.863 271.908833,434.585 C272.846167,435.307 274.074833,435.668 275.594833,435.668 Z M275.233833,428.277 C274.397833,428.277 273.7265,428.007833 273.219833,427.4695 C272.713167,426.931167 272.459833,426.187 272.459833,425.237 C272.459833,424.287 272.713167,423.539667 273.219833,422.995 C273.7265,422.450333 274.397833,422.178 275.233833,422.178 C276.0445,422.178 276.712667,422.4535 277.238333,423.0045 C277.764,423.5555 278.026833,424.299667 278.026833,425.237 C278.026833,426.161667 277.764,426.8995 277.238333,427.4505 C276.712667,428.0015 276.0445,428.277 275.233833,428.277 Z M288.6415,430.633 C289.5155,430.633 290.310333,430.468333 291.026,430.139 C291.741667,429.809667 292.3275,429.353667 292.7835,428.771 C293.2395,428.188333 293.537167,427.529667 293.6765,426.795 L293.6765,426.795 L290.8455,426.795 C290.7315,427.314333 290.468667,427.726 290.057,428.03 C289.645333,428.334 289.129167,428.486 288.5085,428.486 C287.811833,428.486 287.229167,428.264333 286.7605,427.821 C286.291833,427.377667 286.0385,426.687333 286.0005,425.75 L286.0005,425.75 L293.7145,425.75 C293.777833,425.408 293.8095,425.104 293.8095,424.838 C293.8095,423.875333 293.597333,423.017167 293.173,422.2635 C292.748667,421.509833 292.147,420.917667 291.368,420.487 C290.589,420.056333 289.680167,419.841 288.6415,419.841 C287.6155,419.841 286.7035,420.056333 285.9055,420.487 C285.1075,420.917667 284.486833,421.5415 284.0435,422.3585 C283.600167,423.1755 283.3785,424.135 283.3785,425.237 C283.3785,426.339 283.600167,427.295333 284.0435,428.106 C284.486833,428.916667 285.1075,429.5405 285.9055,429.9775 C286.7035,430.4145 287.6155,430.633 288.6415,430.633 Z M291.1115,424.572 L286.0005,424.572 C286.051167,423.710667 286.3235,423.058333 286.8175,422.615 C287.3115,422.171667 287.9195,421.95 288.6415,421.95 C289.350833,421.95 289.949333,422.171667 290.437,422.615 C290.924667,423.058333 291.1495,423.710667 291.1115,424.572 L291.1115,424.572 Z M299.180167,430.5 L299.180167,424.914 C299.180167,424.014667 299.401833,423.330667 299.845167,422.862 C300.2885,422.393333 300.883833,422.159 301.631167,422.159 C302.353167,422.159 302.92,422.3775 303.331667,422.8145 C303.743333,423.2515 303.949167,423.875333 303.949167,424.686 L303.949167,424.686 L303.949167,430.5 L306.609167,430.5 L306.609167,424.914 C306.609167,424.014667 306.830833,423.330667 307.274167,422.862 C307.7175,422.393333 308.312833,422.159 309.060167,422.159 C309.782167,422.159 310.349,422.3775 310.760667,422.8145 C311.172333,423.2515 311.378167,423.875333 311.378167,424.686 L311.378167,424.686 L311.378167,430.5 L314.038167,430.5 L314.038167,424.382 C314.038167,422.925333 313.667667,421.801167 312.926667,421.0095 C312.185667,420.217833 311.1755,419.822 309.896167,419.822 C309.0855,419.822 308.354,420.034167 307.701667,420.4585 C307.049333,420.882833 306.5585,421.456 306.229167,422.178 C305.9125,421.418 305.440667,420.835333 304.813667,420.43 C304.186667,420.024667 303.448833,419.822 302.600167,419.822 C301.802167,419.822 301.102333,420.008833 300.500667,420.3825 C299.899,420.756167 299.458833,421.285 299.180167,421.969 L299.180167,421.969 L299.180167,419.974 L296.501167,419.974 L296.501167,430.5 L299.180167,430.5 Z M321.916833,430.633 C322.790833,430.633 323.585667,430.468333 324.301333,430.139 C325.017,429.809667 325.602833,429.353667 326.058833,428.771 C326.514833,428.188333 326.8125,427.529667 326.951833,426.795 L326.951833,426.795 L324.120833,426.795 C324.006833,427.314333 323.744,427.726 323.332333,428.03 C322.920667,428.334 322.4045,428.486 321.783833,428.486 C321.087167,428.486 320.5045,428.264333 320.035833,427.821 C319.567167,427.377667 319.313833,426.687333 319.275833,425.75 L319.275833,425.75 L326.989833,425.75 C327.053167,425.408 327.084833,425.104 327.084833,424.838 C327.084833,423.875333 326.872667,423.017167 326.448333,422.2635 C326.024,421.509833 325.422333,420.917667 324.643333,420.487 C323.864333,420.056333 322.9555,419.841 321.916833,419.841 C320.890833,419.841 319.978833,420.056333 319.180833,420.487 C318.382833,420.917667 317.762167,421.5415 317.318833,422.3585 C316.8755,423.1755 316.653833,424.135 316.653833,425.237 C316.653833,426.339 316.8755,427.295333 317.318833,428.106 C317.762167,428.916667 318.382833,429.5405 319.180833,429.9775 C319.978833,430.4145 320.890833,430.633 321.916833,430.633 Z M324.386833,424.572 L319.275833,424.572 C319.3265,423.710667 319.598833,423.058333 320.092833,422.615 C320.586833,422.171667 321.194833,421.95 321.916833,421.95 C322.626167,421.95 323.224667,422.171667 323.712333,422.615 C324.2,423.058333 324.424833,423.710667 324.386833,424.572 L324.386833,424.572 Z M332.4555,430.5 L332.4555,424.914 C332.4555,423.989333 332.6835,423.28 333.1395,422.786 C333.5955,422.292 334.2035,422.045 334.9635,422.045 C335.710833,422.045 336.299833,422.276167 336.7305,422.7385 C337.161167,423.200833 337.3765,423.85 337.3765,424.686 L337.3765,424.686 L337.3765,430.5 L340.0365,430.5 L340.0365,424.382 C340.0365,422.938 339.6755,421.817 338.9535,421.019 C338.2315,420.221 337.2625,419.822 336.0465,419.822 C335.2105,419.822 334.472667,420.0215 333.833,420.4205 C333.193333,420.8195 332.734167,421.373667 332.4555,422.083 L332.4555,422.083 L332.4555,419.974 L329.7765,419.974 L329.7765,430.5 L332.4555,430.5 Z M348.808167,430.5 L348.808167,428.201 L347.763167,428.201 C347.281833,428.201 346.939833,428.099667 346.737167,427.897 C346.5345,427.694333 346.433167,427.339667 346.433167,426.833 L346.433167,426.833 L346.433167,422.235 L348.789167,422.235 L348.789167,419.974 L346.433167,419.974 L346.433167,417.371 L343.754167,417.371 L343.754167,419.974 L342.291167,419.974 L342.291167,422.235 L343.754167,422.235 L343.754167,426.795 C343.754167,428.125 344.067667,429.075 344.694667,429.645 C345.321667,430.215 346.224167,430.5 347.402167,430.5 L347.402167,430.5 L348.808167,430.5 Z" id="PerformanceManagement" fill="#FFFFFF" fill-rule="nonzero"/>
            <g id="meter" transform="translate(238.000000, 311.000000)" fill="#FFFFFF" fill-rule="nonzero">
                <path d="M84.5666667,54.5217391 L81.7,54.5217391 L81.7,7.17391304 C81.6951009,3.21354879 78.4896972,0.00490405109 74.5333333,0 L11.4666667,0 C7.51030278,0.00490405109 4.30489913,3.21354879 4.3,7.17391304 L4.3,54.5217391 L1.43333333,54.5217391 C0.641780554,54.5217391 0,55.1641686 0,55.9565217 L0,61.6956522 C0,64.0727114 1.92534184,66 4.3,66 L81.7,66 C84.0746582,66 86,64.0727114 86,61.6956522 L86,55.9565217 C86,55.1641686 85.3582194,54.5217391 84.5666667,54.5217391 Z M11.4666667,2.86956522 L74.5333333,2.86956522 C76.9079915,2.86956522 78.8333333,4.79685382 78.8333333,7.17391304 L78.8333333,11.4782609 L7.16666667,11.4782609 L7.16666667,7.17391304 C7.16666667,4.79685382 9.09200851,2.86956522 11.4666667,2.86956522 Z M7.16666667,14.3478261 L78.8333333,14.3478261 L78.8333333,54.5217391 L66.2629721,54.5217391 C66.3434569,54.2618249 66.429541,54.0040124 66.5009278,53.742697 L71.8444337,53.0757473 C72.5618002,52.9860734 73.1,52.3758704 73.1,51.6521739 L73.1,43.0434783 C73.1,42.3197818 72.5618002,41.7095788 71.8444337,41.6199049 L66.5065267,40.9529552 C65.9676269,38.953507 65.1704754,37.0332243 64.1346681,35.2411473 L67.4429524,30.9830375 C67.88667,30.4113663 67.8362793,29.599397 67.3253743,29.087275 L61.247705,23.004161 C60.7368002,22.4920388 59.9249512,22.4415973 59.3545573,22.886464 L55.1000488,26.1973929 C53.3083821,25.1584367 51.3879394,24.3583772 49.3884115,23.8175314 L48.7221354,18.4686225 C48.6297526,17.7526325 48.020866,17.2173913 47.3,17.2173913 L38.7,17.2173913 C37.9770345,17.2173913 37.3674479,17.7561353 37.2778646,18.4742272 L36.6115885,23.8175314 C34.6141601,24.3569761 32.695817,25.1549337 30.9055502,26.1917883 L26.6517415,22.8801588 C26.0806477,22.4359927 25.2694986,22.4864342 24.7578939,22.9978559 L18.6809245,29.0816704 C18.1693196,29.5930918 18.118929,30.4057617 18.5633464,30.9767323 L21.8709309,35.2355427 C20.8330241,37.0290209 20.0337727,38.9514054 19.4934733,40.9529552 L14.1499674,41.6199049 C13.4347005,41.7123811 12.9,42.3218834 12.9,43.0434783 L12.9,51.6521739 C12.9,52.3758704 13.4381998,52.9860734 14.1555663,53.0757473 L19.4990722,53.742697 C19.570459,54.0040124 19.6565431,54.2618249 19.7370279,54.5217391 L7.16666667,54.5217391 L7.16666667,14.3478261 Z M37.2666667,57.3913043 L48.7333333,57.3913043 L48.7333333,58.826087 L37.2666667,58.826087 L37.2666667,57.3913043 Z M28.9809082,54.5217391 C28.0668783,52.7324644 27.5055826,50.7841584 27.326416,48.7826087 L28.6666667,48.7826087 L28.6666667,45.9130435 L27.3061198,45.9130435 C27.4712891,44.1237688 27.9430014,42.3765285 28.7009602,40.747686 L29.8704427,41.4237432 L31.303776,38.938795 L30.1342936,38.2627378 C31.1729003,36.7957285 32.4515625,35.5157737 33.9170899,34.4761167 L34.5917642,35.6474822 L37.0749024,34.2126996 L36.3995279,33.0413341 C38.028125,32.2798064 39.7763997,31.804815 41.5666667,31.6380774 L41.5666667,33 L44.4333333,33 L44.4333333,31.6380774 C46.2208007,31.8034137 47.966276,32.275603 49.5934733,33.0343283 L48.918099,34.2049932 L51.4005372,35.6397758 L52.0759115,34.4691109 C53.5414389,35.5087678 54.8201009,36.7887228 55.8587076,38.2557321 L54.6885253,38.9310886 L56.1218587,41.4167375 L57.292041,40.7406802 C58.0493002,42.3695228 58.5217121,44.1167629 58.6861816,45.9060378 L57.3333333,45.9060378 L57.3333333,48.775603 L58.673584,48.775603 C58.4944174,50.7771527 57.9331217,52.7254586 57.0190918,54.5147334 L28.9809082,54.5217391 Z M43,28.6956522 C36.7718587,28.7012568 30.9573405,31.8188263 27.5013835,37.0052012 C24.0454264,42.1922766 23.4036458,48.7636931 25.7916016,54.5217391 L22.7639649,54.5217391 C22.4770182,53.7391942 22.2376629,52.9398353 22.0472983,52.1285666 C21.9157226,51.5372792 21.4265137,51.093113 20.8260253,51.0181514 L15.7666667,50.3855299 L15.7666667,44.3101223 L20.8323243,43.6775008 C21.4328125,43.6025392 21.9213215,43.158373 22.0535971,42.5670856 C22.5833984,40.2033372 23.5191243,37.9495796 24.8180826,35.9052947 C25.1421224,35.3945736 25.1106283,34.7346298 24.7389974,34.2568358 L21.6028809,30.2208092 L25.8902832,25.9290719 L29.922233,29.0683594 C30.3995443,29.440366 31.0588215,29.471892 31.5690267,29.1475246 C33.6112467,27.8472528 35.8627278,26.9105808 38.2240885,26.3802438 C38.8147786,26.2478345 39.2584962,25.7588315 39.3333821,25.1577362 L39.9653646,20.0869565 L46.0346354,20.0869565 L46.6666179,25.1577362 C46.7415038,25.7588315 47.1852214,26.2478345 47.7759115,26.3802438 C50.1372722,26.9105808 52.3887533,27.8472528 54.4309733,29.1475246 C54.9411785,29.471892 55.6004557,29.440366 56.077767,29.0683594 L60.1097168,25.9290719 L64.3971191,30.2208092 L61.2610026,34.2568358 C60.8893717,34.7346298 60.8578776,35.3945736 61.1819174,35.9052947 C62.4808757,37.9495796 63.4166016,40.2033372 63.946403,42.5670856 C64.0786785,43.158373 64.5671875,43.6025392 65.1676757,43.6775008 L70.2333333,44.3101223 L70.2333333,50.3855299 L65.1676757,51.0181514 C64.5671875,51.093113 64.0786785,51.5372792 63.946403,52.1285666 C63.7567382,52.9398353 63.5173828,53.7391942 63.2297363,54.5217391 L60.2083984,54.5217391 C62.5963542,48.7636931 61.9545736,42.1922766 58.4986165,37.0052012 C55.0426596,31.8188263 49.2281413,28.7012568 43,28.6956522 L43,28.6956522 Z M83.1333333,61.6956522 C83.1333333,62.4880053 82.4915528,63.1304348 81.7,63.1304348 L4.3,63.1304348 C3.50844722,63.1304348 2.86666667,62.4880053 2.86666667,61.6956522 L2.86666667,57.3913043 L34.4,57.3913043 L34.4,58.826087 C34.4,60.4107932 35.6835611,61.6956522 37.2666667,61.6956522 L48.7333333,61.6956522 C50.3164389,61.6956522 51.6,60.4107932 51.6,58.826087 L51.6,57.3913043 L83.1333333,57.3913043 L83.1333333,61.6956522 Z" id="Shape"/>
                <polygon id="Path" points="13 6 16 6 16 9 13 9"/>
                <polygon id="Path" points="18 6 21 6 21 9 18 9"/>
                <polygon id="Path" points="25 6 28 6 28 9 25 9"/>
                <path d="M49.8875183,39 L45.3972188,43.4893451 C44.7994842,43.1977345 44.1434339,43.0446389 43.4786363,43.0417227 C41.005327,43.0417227 39,45.0472746 39,47.5208614 C39,49.9944481 41.005327,52 43.4786363,52 C45.9519457,52 47.9572727,49.9944481 47.9572727,47.5208614 C47.9543569,46.8559892 47.8012784,46.1998654 47.5097005,45.6020637 L52,41.1112607 L49.8875183,39 Z M43.4786363,49.0139076 C42.6541998,49.0139076 41.9857576,48.3453904 41.9857576,47.5208614 C41.9857576,46.6963324 42.6541998,46.0278152 43.4786363,46.0278152 C44.3030729,46.0278152 44.9715151,46.6963324 44.9715151,47.5208614 C44.9715151,48.3453904 44.3030729,49.0139076 43.4786363,49.0139076 Z" id="Shape"/>
                <path d="M44,36 C37.3759766,36.0073241 32.0073241,41.3759766 32,48 L35,48 C35.005127,43.03125 39.03125,39.005127 44,39 L44,36 Z" id="Path"/>
            </g>
            <g id="flaticon1594884334-svg" transform="translate(225.000000, 175.500000)" fill-rule="nonzero">
                <g id="Shape">
                    <use fill="black" fill-opacity="1" filter="url(#filter-5)" xlink:href="#path-4"/>
                    <use fill="#092ABB" xlink:href="#path-4"/>
                </g>
            </g>
            <path d="M297.995727,250 L302.991048,254.750491 L303,254.767518 C297.216887,259.875573 289.473245,263 280.959715,263 C272.481994,263 264.765209,259.8926 259,254.818599 L264.004273,250.059594 C268.489318,253.924689 274.433571,256.274394 280.968667,256.274394 C287.530621,256.274394 293.501729,253.899149 297.995727,250 Z M281.0347,233 L292,243.892652 C289.059148,246.450057 285.198738,248 280.973975,248 C276.775237,248 272.940852,246.47589 270,243.952928 L270,243.952928 L281.0347,233 Z M281,199 C298.682346,199 313,213.294865 313,230.929321 C313,236.760353 311.432761,242.22032 308.696735,246.920486 L308.696735,246.920486 L308.661317,246.885146 L303.516879,241.752071 C305.101826,238.474324 305.996126,234.799006 305.996126,230.920486 C305.996126,217.14688 294.804095,205.979569 281,205.979569 C267.195905,205.979569 256.003874,217.138045 256.003874,230.920486 C256.003874,234.843181 256.907028,238.545003 258.518539,241.84042 L258.518539,241.84042 L253.347537,247 C250.584947,242.282165 249,236.786858 249,230.929321 C249,213.294865 263.317654,199 281,199 Z M281,214 C290.382946,214 298,221.323813 298,230.345535 C298,231.925181 297.754005,233.454143 297.323514,234.90708 L297.323514,234.90708 L287.659432,225.615044 L282.484755,220.639582 C282.08062,220.2679 281.579845,220.073612 281.052713,220.073612 C280.525581,220.073612 280.016021,220.259453 279.620672,220.639582 L279.620672,220.639582 L274.779845,225.294047 L264.694057,235 C264.245995,233.521722 264,231.967418 264,230.345535 C264,221.323813 271.617054,214 281,214 Z" id="Combined-Shape" fill="#FFFFFF" fill-rule="nonzero"/>
        </g>
    </g>
</svg>